<svg version="1.1" viewBox="0.0 0.0 735.1023622047244 397.21259842519686" fill="none" stroke="none" stroke-linecap="square" stroke-miterlimit="10" xmlns:xlink="http://www.w3.org/1999/xlink" xmlns="http://www.w3.org/2000/svg"><clipPath id="p.0"><path d="m0 0l735.10236 0l0 397.2126l-735.10236 0l0 -397.2126z" clip-rule="nonzero"/></clipPath><g clip-path="url(#p.0)"><path fill="#000000" fill-opacity="0.0" d="m0 0l735.10236 0l0 397.2126l-735.10236 0z" fill-rule="evenodd"/><path fill="#ff9900" d="m24.664042 159.66705l0 0c0 -10.840073 8.787615 -19.627686 19.627691 -19.627686l186.19344 0c5.205597 0 10.197968 2.0679169 13.878876 5.748825c3.6809082 3.680893 5.74881 8.673279 5.74881 13.87886l0 78.50841c0 10.840073 -8.787613 19.6277 -19.627686 19.6277l-186.19344 0c-10.840076 0 -19.627691 -8.787628 -19.627691 -19.6277z" fill-rule="evenodd"/><path stroke="#595959" stroke-width="2.0" stroke-linejoin="round" stroke-linecap="butt" d="m24.664042 159.66705l0 0c0 -10.840073 8.787615 -19.627686 19.627691 -19.627686l186.19344 0c5.205597 0 10.197968 2.0679169 13.878876 5.748825c3.6809082 3.680893 5.74881 8.673279 5.74881 13.87886l0 78.50841c0 10.840073 -8.787613 19.6277 -19.627686 19.6277l-186.19344 0c-10.840076 0 -19.627691 -8.787628 -19.627691 -19.6277z" fill-rule="evenodd"/><path fill="#000000" fill-opacity="0.0" d="m403.02362 201.60104l-164.91339 23.02362" fill-rule="evenodd"/><path stroke="#000000" stroke-width="3.0" stroke-linejoin="round" stroke-linecap="butt" d="m403.02362 201.60104l-164.91339 23.02362" fill-rule="evenodd"/><path fill="#000000" fill-opacity="0.0" d="m398.17322 195.27559l-160.06299 -24.53543" fill-rule="evenodd"/><path stroke="#000000" stroke-width="3.0" stroke-linejoin="round" stroke-linecap="butt" d="m398.17322 195.27559l-160.06299 -24.53543" fill-rule="evenodd"/><path fill="#a2c4c9" d="m281.58456 176.97482l0 0c-1.5402527 -10.577667 3.516693 -21.048904 13.025024 -26.970398c9.508301 -5.9214935 21.800415 -6.25473 31.66034 -0.8583069l0 0c3.4926758 -6.150299 9.885315 -10.396652 17.244263 -11.45462c7.358917 -1.0579681 14.819824 1.196701 20.125916 6.082016l0 0c2.9753113 -5.576248 8.817413 -9.322784 15.453186 -9.910126c6.635803 -0.5873413 13.126129 2.067627 17.167938 7.0227814l0 0c5.375366 -5.9108124 13.927673 -8.399506 21.95633 -6.389221c8.0286255 2.0102997 14.091583 8.158508 15.565399 15.784271l0 0c6.5856934 1.6786957 12.071472 5.9461517 15.039917 11.699814c2.9684753 5.753662 3.1284485 12.429092 0.43856812 18.30159l0 0c6.485016 7.88739 8.002014 18.397232 3.9849243 27.607468c-4.0171204 9.21022 -12.964844 15.737091 -23.503998 17.144882c-0.0743103 8.6441345 -5.1473083 16.575882 -13.263672 20.738007c-8.116394 4.1621094 -18.008728 3.9046936 -25.864105 -0.6730652l0 0c-3.3459473 10.352829 -12.763733 17.970367 -24.18451 19.561493c-11.420776 1.591156 -22.79715 -3.129303 -29.21408 -12.1219635l0 0c-7.865814 4.4325104 -17.304169 5.7093964 -26.185913 3.5425568c-8.881744 -2.166809 -16.45874 -7.5947723 -21.02179 -15.0594635l0 0c-8.037903 0.87898254 -15.809418 -3.01268 -19.45758 -9.743576c-3.6481934 -6.7308807 -2.3964233 -14.868164 3.1340332 -20.373322l0 0c-7.169983 -3.943634 -10.828552 -11.769104 -9.067902 -19.395752c1.7606812 -7.626648 8.541595 -13.326233 16.806793 -14.126633z" fill-rule="evenodd"/><path fill="#000000" fill-opacity="0.0" d="m273.6868 210.90489l0 0c3.383545 1.8610077 7.292328 2.7052002 11.201538 2.4192505m5.1202393 27.698318c1.6810913 -0.18383789 3.328888 -0.57315063 4.9009094 -1.1578674m42.304443 12.674301c-1.182373 -1.6569824 -2.1723328 -3.4276123 -2.9529724 -5.281723m56.353607 -2.1581268l0 0c0.61001587 -1.8874817 1.005249 -3.8301086 1.1791382 -5.795456m37.947144 -14.268768c0.079071045 -9.203003 -5.5144043 -17.629364 -14.37793 -21.659729m33.89685 -23.09166c-1.4354248 3.1338043 -3.6267395 5.9137573 -6.4021606 8.121887m-9.075012 -38.1241l0 0c0.24456787 1.2655029 0.35775757 2.5500183 0.3380127 3.8357544m-37.8591 -13.230423l0 0c-1.3408813 1.4744568 -2.4455872 3.1221313 -3.2797241 4.891739m-29.341705 -2.0050354l0 0c-0.7145691 1.3392334 -1.248169 2.756363 -1.588501 4.2187653m-35.782227 1.1539459l0 0c2.0863647 1.1418762 4.01651 2.5162506 5.7480774 4.092926m-50.43286 23.735931l0 0c0.21228027 1.4578705 0.547699 2.897766 1.0031433 4.3062286" fill-rule="evenodd"/><path stroke="#595959" stroke-width="1.0" stroke-linejoin="round" stroke-linecap="butt" d="m281.58456 176.97482l0 0c-1.5402527 -10.577667 3.516693 -21.048904 13.025024 -26.970398c9.508301 -5.9214935 21.800415 -6.25473 31.66034 -0.8583069l0 0c3.4926758 -6.150299 9.885315 -10.396652 17.244263 -11.45462c7.358917 -1.0579681 14.819824 1.196701 20.125916 6.082016l0 0c2.9753113 -5.576248 8.817413 -9.322784 15.453186 -9.910126c6.635803 -0.5873413 13.126129 2.067627 17.167938 7.0227814l0 0c5.375366 -5.9108124 13.927673 -8.399506 21.95633 -6.389221c8.0286255 2.0102997 14.091583 8.158508 15.565399 15.784271l0 0c6.5856934 1.6786957 12.071472 5.9461517 15.039917 11.699814c2.9684753 5.753662 3.1284485 12.429092 0.43856812 18.30159l0 0c6.485016 7.88739 8.002014 18.397232 3.9849243 27.607468c-4.0171204 9.21022 -12.964844 15.737091 -23.503998 17.144882c-0.0743103 8.6441345 -5.1473083 16.575882 -13.263672 20.738007c-8.116394 4.1621094 -18.008728 3.9046936 -25.864105 -0.6730652l0 0c-3.3459473 10.352829 -12.763733 17.970367 -24.18451 19.561493c-11.420776 1.591156 -22.79715 -3.129303 -29.21408 -12.1219635l0 0c-7.865814 4.4325104 -17.304169 5.7093964 -26.185913 3.5425568c-8.881744 -2.166809 -16.45874 -7.5947723 -21.02179 -15.0594635l0 0c-8.037903 0.87898254 -15.809418 -3.01268 -19.45758 -9.743576c-3.6481934 -6.7308807 -2.3964233 -14.868164 3.1340332 -20.373322l0 0c-7.169983 -3.943634 -10.828552 -11.769104 -9.067902 -19.395752c1.7606812 -7.626648 8.541595 -13.326233 16.806793 -14.126633z" fill-rule="evenodd"/><path stroke="#595959" stroke-width="1.0" stroke-linejoin="round" stroke-linecap="butt" d="m273.6868 210.90489l0 0c3.383545 1.8610077 7.292328 2.7052002 11.201538 2.4192505m5.1202393 27.698318c1.6810913 -0.18383789 3.328888 -0.57315063 4.9009094 -1.1578674m42.304443 12.674301c-1.182373 -1.6569824 -2.1723328 -3.4276123 -2.9529724 -5.281723m56.353607 -2.1581268l0 0c0.61001587 -1.8874817 1.005249 -3.8301086 1.1791382 -5.795456m37.947144 -14.268768c0.079071045 -9.203003 -5.5144043 -17.629364 -14.37793 -21.659729m33.89685 -23.09166c-1.4354248 3.1338043 -3.6267395 5.9137573 -6.4021606 8.121887m-9.075012 -38.1241l0 0c0.24456787 1.2655029 0.35775757 2.5500183 0.3380127 3.8357544m-37.8591 -13.230423l0 0c-1.3408813 1.4744568 -2.4455872 3.1221313 -3.2797241 4.891739m-29.341705 -2.0050354l0 0c-0.7145691 1.3392334 -1.248169 2.756363 -1.588501 4.2187653m-35.782227 1.1539459l0 0c2.0863647 1.1418762 4.01651 2.5162506 5.7480774 4.092926m-50.43286 23.735931l0 0c0.21228027 1.4578705 0.547699 2.897766 1.0031433 4.3062286" fill-rule="evenodd"/><path fill="#000000" d="m326.41022 191.80252l0 -13.359375l1.78125 0l0 11.78125l6.5625 0l0 1.578125l-8.34375 0zm10.250702 -11.46875l0 -1.890625l1.640625 0l0 1.890625l-1.640625 0zm0 11.46875l0 -9.671875l1.640625 0l0 9.671875l-1.640625 0zm5.6448364 0l-1.515625 0l0 -13.359375l1.640625 0l0 4.765625q1.046875 -1.296875 2.65625 -1.296875q0.890625 0 1.6875 0.359375q0.796875 0.359375 1.3125 1.015625q0.515625 0.640625 0.796875 1.5625q0.296875 0.921875 0.296875 1.96875q0 2.484375 -1.234375 3.84375q-1.21875 1.359375 -2.953125 1.359375q-1.703125 0 -2.6875 -1.4375l0 1.21875zm-0.015625 -4.90625q0 1.734375 0.484375 2.515625q0.765625 1.265625 2.09375 1.265625q1.078125 0 1.859375 -0.9375q0.78125 -0.9375 0.78125 -2.78125q0 -1.890625 -0.75 -2.796875q-0.75 -0.90625 -1.828125 -0.90625q-1.0625 0 -1.859375 0.9375q-0.78125 0.9375 -0.78125 2.703125zm8.891327 8.609375l0 -13.375l1.484375 0l0 1.25q0.53125 -0.734375 1.1875 -1.09375q0.671875 -0.375 1.625 -0.375q1.234375 0 2.171875 0.640625q0.953125 0.625 1.4375 1.796875q0.484375 1.15625 0.484375 2.546875q0 1.484375 -0.53125 2.671875q-0.53125 1.1875 -1.546875 1.828125q-1.015625 0.625 -2.140625 0.625q-0.8125 0 -1.46875 -0.34375q-0.65625 -0.34375 -1.0625 -0.875l0 4.703125l-1.640625 0zm1.484375 -8.484375q0 1.859375 0.75 2.765625q0.765625 0.890625 1.828125 0.890625q1.09375 0 1.875 -0.921875q0.78125 -0.9375 0.78125 -2.875q0 -1.84375 -0.765625 -2.765625q-0.75 -0.921875 -1.8125 -0.921875q-1.046875 0 -1.859375 0.984375q-0.796875 0.96875 -0.796875 2.84375zm17.047607 3.203125l0 1.578125l-8.828125 0q-0.015625 -0.59375 0.1875 -1.140625q0.34375 -0.90625 1.078125 -1.78125q0.75 -0.875 2.15625 -2.015625q2.171875 -1.78125 2.9375 -2.828125q0.765625 -1.046875 0.765625 -1.96875q0 -0.984375 -0.703125 -1.640625q-0.6875 -0.671875 -1.8125 -0.671875q-1.1875 0 -1.90625 0.71875q-0.703125 0.703125 -0.703125 1.953125l-1.6875 -0.171875q0.171875 -1.890625 1.296875 -2.875q1.140625 -0.984375 3.03125 -0.984375q1.921875 0 3.046875 1.0625q1.125 1.0625 1.125 2.640625q0 0.796875 -0.328125 1.578125q-0.328125 0.78125 -1.09375 1.640625q-0.75 0.84375 -2.53125 2.34375q-1.46875 1.234375 -1.890625 1.6875q-0.421875 0.4375 -0.6875 0.875l6.546875 0zm2.219452 5.28125l0 -13.375l1.484375 0l0 1.25q0.53125 -0.734375 1.1875 -1.09375q0.671875 -0.375 1.625 -0.375q1.234375 0 2.171875 0.640625q0.953125 0.625 1.4375 1.796875q0.484375 1.15625 0.484375 2.546875q0 1.484375 -0.53125 2.671875q-0.53125 1.1875 -1.546875 1.828125q-1.015625 0.625 -2.140625 0.625q-0.8125 0 -1.46875 -0.34375q-0.65625 -0.34375 -1.0625 -0.875l0 4.703125l-1.640625 0zm1.484375 -8.484375q0 1.859375 0.75 2.765625q0.765625 0.890625 1.828125 0.890625q1.09375 0 1.875 -0.921875q0.78125 -0.9375 0.78125 -2.875q0 -1.84375 -0.765625 -2.765625q-0.75 -0.921875 -1.8125 -0.921875q-1.046875 0 -1.859375 0.984375q-0.796875 0.96875 -0.796875 2.84375z" fill-rule="nonzero"/><path fill="#000000" d="m320.2737 213.80252l0 -13.359375l1.8125 0l7.015625 10.484375l0 -10.484375l1.6875 0l0 13.359375l-1.8125 0l-7.015625 -10.5l0 10.5l-1.6875 0zm19.91043 -3.109375l1.6875 0.203125q-0.40625 1.484375 -1.484375 2.3125q-1.078125 0.8125 -2.765625 0.8125q-2.125 0 -3.375 -1.296875q-1.234375 -1.3125 -1.234375 -3.671875q0 -2.453125 1.25 -3.796875q1.265625 -1.34375 3.265625 -1.34375q1.9375 0 3.15625 1.328125q1.234375 1.3125 1.234375 3.703125q0 0.15625 0 0.4375l-7.21875 0q0.09375 1.59375 0.90625 2.453125q0.8125 0.84375 2.015625 0.84375q0.90625 0 1.546875 -0.46875q0.640625 -0.484375 1.015625 -1.515625zm-5.390625 -2.65625l5.40625 0q-0.109375 -1.21875 -0.625 -1.828125q-0.78125 -0.953125 -2.03125 -0.953125q-1.125 0 -1.90625 0.765625q-0.765625 0.75 -0.84375 2.015625zm12.719482 4.296875l0.234375 1.453125q-0.6875 0.140625 -1.234375 0.140625q-0.890625 0 -1.390625 -0.28125q-0.484375 -0.28125 -0.6875 -0.734375q-0.203125 -0.46875 -0.203125 -1.9375l0 -5.578125l-1.203125 0l0 -1.265625l1.203125 0l0 -2.390625l1.625 -0.984375l0 3.375l1.65625 0l0 1.265625l-1.65625 0l0 5.671875q0 0.6875 0.078125 0.890625q0.09375 0.203125 0.28125 0.328125q0.203125 0.109375 0.578125 0.109375q0.265625 0 0.71875 -0.0625zm3.3864136 1.46875l-2.96875 -9.671875l1.703125 0l1.53125 5.578125l0.578125 2.078125q0.046875 -0.15625 0.5 -2.0l1.546875 -5.65625l1.6875 0l1.4375 5.609375l0.484375 1.84375l0.5625 -1.859375l1.65625 -5.59375l1.59375 0l-3.03125 9.671875l-1.703125 0l-1.53125 -5.796875l-0.375 -1.640625l-1.953125 7.4375l-1.71875 0zm11.082336 -4.84375q0 -2.6875 1.484375 -3.96875q1.25 -1.078125 3.046875 -1.078125q2.0 0 3.265625 1.3125q1.265625 1.296875 1.265625 3.609375q0 1.859375 -0.5625 2.9375q-0.5625 1.0625 -1.640625 1.65625q-1.0625 0.59375 -2.328125 0.59375q-2.03125 0 -3.28125 -1.296875q-1.25 -1.3125 -1.25 -3.765625zm1.6875 0q0 1.859375 0.796875 2.796875q0.8125 0.921875 2.046875 0.921875q1.21875 0 2.03125 -0.921875q0.8125 -0.9375 0.8125 -2.84375q0 -1.796875 -0.8125 -2.71875q-0.8125 -0.921875 -2.03125 -0.921875q-1.234375 0 -2.046875 0.921875q-0.796875 0.90625 -0.796875 2.765625zm9.281952 4.84375l0 -9.671875l1.46875 0l0 1.46875q0.5625 -1.03125 1.03125 -1.359375q0.484375 -0.328125 1.0625 -0.328125q0.828125 0 1.6875 0.53125l-0.5625 1.515625q-0.609375 -0.359375 -1.203125 -0.359375q-0.546875 0 -0.96875 0.328125q-0.421875 0.328125 -0.609375 0.890625q-0.28125 0.875 -0.28125 1.921875l0 5.0625l-1.625 0zm6.228302 0l0 -13.359375l1.640625 0l0 7.625l3.890625 -3.9375l2.109375 0l-3.6875 3.59375l4.0625 6.078125l-2.015625 0l-3.203125 -4.953125l-1.15625 1.125l0 3.828125l-1.640625 0z" fill-rule="nonzero"/><path fill="#000000" fill-opacity="0.0" d="m40.64562 -4.8293962E-4l91.46457 0l0 32.31496l-91.46457 0z" fill-rule="evenodd"/><path fill="#ffffff" d="m56.96674 8.999517l58.822323 0l0 12.799999l-58.822323 0l0 -12.799999z" fill-rule="nonzero"/><path fill="#000000" fill-opacity="0.0" d="m56.96674 9.592697l55.861675 0l0 12.253647l-55.861675 0l0 -12.253647z" fill-rule="nonzero"/><path fill="#000000" d="m60.708637 11.614517l3.046875 0q0.9062462 0 1.3437462 0.078125q0.453125 0.0625 0.796875 0.3125q0.359375 0.234375 0.59375 0.640625q0.234375 0.390625 0.234375 0.890625q0 0.53125 -0.296875 0.984375q-0.28125 0.4375 -0.78125 0.671875q0.703125 0.203125 1.078125 0.6875q0.375 0.484375 0.375 1.140625q0 0.53125 -0.25 1.03125q-0.234375 0.484375 -0.65625 0.78125q-0.421875 0.28125 -1.03125 0.359375q-0.390625 0.03125 -1.8593712 0.046875l-2.59375 0l0 -7.625zm1.546875 1.265625l0 1.765625l1.0 0q0.9062462 0 1.1249962 -0.03125q0.390625 -0.046875 0.609375 -0.265625q0.234375 -0.234375 0.234375 -0.59375q0 -0.359375 -0.203125 -0.578125q-0.1875 -0.21875 -0.578125 -0.265625q-0.21875 -0.03125 -1.3124962 -0.03125l-0.875 0zm0 3.03125l0 2.046875l1.421875 0q0.8281212 0 1.0468712 -0.046875q0.34375 -0.0625 0.5625 -0.296875q0.21875 -0.25 0.21875 -0.65625q0 -0.34375 -0.171875 -0.578125q-0.15625 -0.25 -0.484375 -0.359375q-0.3125 -0.109375 -1.3593712 -0.109375l-1.234375 0zm7.5393486 3.328125l-1.46875 0l0 -5.53125l1.359375 0l0 0.796875q0.34375 -0.5625 0.625 -0.734375q0.28125 -0.1875 0.625 -0.1875q0.5 0 0.96875 0.28125l-0.453125 1.28125q-0.375 -0.25 -0.6875 -0.25q-0.3125 0 -0.53125 0.171875q-0.203125 0.171875 -0.328125 0.625q-0.109375 0.4375 -0.109375 1.84375l0 1.703125zm2.396988 -2.84375q0 -0.71875 0.359375 -1.40625q0.359375 -0.6875 1.015625 -1.046875q0.671875 -0.359375 1.46875 -0.359375q1.265625 0 2.0625 0.828125q0.796875 0.8125 0.796875 2.046875q0 1.25 -0.8125 2.078125q-0.796875 0.828125 -2.03125 0.828125q-0.75 0 -1.453125 -0.34375q-0.6875 -0.34375 -1.046875 -1.0q-0.359375 -0.671875 -0.359375 -1.625zm1.5 0.078125q0 0.828125 0.390625 1.265625q0.390625 0.4375 0.96875 0.4375q0.5625 0 0.953125 -0.4375q0.390625 -0.4375 0.390625 -1.265625q0 -0.8125 -0.390625 -1.25q-0.390625 -0.4375 -0.953125 -0.4375q-0.578125 0 -0.96875 0.4375q-0.390625 0.4375 -0.390625 1.25zm6.384262 2.765625l-1.75 -5.53125l1.421875 0l1.03125 3.625l0.953125 -3.625l1.40625 0l0.921875 3.625l1.0625 -3.625l1.4375 0l-1.765625 5.53125l-1.40625 0l-0.953125 -3.546875l-0.9375 3.546875l-1.421875 0zm6.7418976 -1.578125l1.46875 -0.21875q0.09375 0.421875 0.375 0.640625q0.296875 0.21875 0.796875 0.21875q0.578125 0 0.859375 -0.203125q0.1875 -0.140625 0.1875 -0.390625q0 -0.171875 -0.09375 -0.28125q-0.109375 -0.09375 -0.5 -0.1875q-1.765625 -0.390625 -2.234375 -0.703125q-0.65625 -0.453125 -0.65625 -1.25q0 -0.71875 0.5625 -1.203125q0.578125 -0.5 1.765625 -0.5q1.125 0 1.671875 0.375q0.5625 0.375 0.765625 1.09375l-1.375 0.25q-0.09375 -0.3125 -0.34375 -0.484375q-0.234375 -0.171875 -0.703125 -0.171875q-0.5625 0 -0.8125 0.15625q-0.171875 0.109375 -0.171875 0.296875q0 0.15625 0.140625 0.265625q0.203125 0.140625 1.359375 0.40625q1.171875 0.265625 1.640625 0.65625q0.453125 0.390625 0.453125 1.078125q0 0.765625 -0.640625 1.3125q-0.625 0.546875 -1.875 0.546875q-1.125 0 -1.78125 -0.453125q-0.65625 -0.46875 -0.859375 -1.25zm9.645248 -0.1875l1.453125 0.25q-0.28125 0.796875 -0.890625 1.21875q-0.609375 0.421875 -1.515625 0.421875q-1.4375 0 -2.125 -0.9375q-0.546875 -0.765625 -0.546875 -1.90625q0 -1.375 0.71875 -2.15625q0.71875 -0.78125 1.8125 -0.78125q1.234375 0 1.9375 0.828125q0.71875 0.8125 0.6875 2.484375l-3.65625 0q0.015625 0.65625 0.34375 1.015625q0.34375 0.359375 0.84375 0.359375q0.34375 0 0.578125 -0.1875q0.234375 -0.1875 0.359375 -0.609375zm0.078125 -1.46875q-0.015625 -0.640625 -0.328125 -0.96875q-0.3125 -0.328125 -0.765625 -0.328125q-0.46875 0 -0.78125 0.34375q-0.3125 0.359375 -0.3125 0.953125l2.1875 0zm4.0514984 3.234375l-1.46875 0l0 -5.53125l1.359375 0l0 0.796875q0.34375 -0.5625 0.625 -0.734375q0.28125 -0.1875 0.625 -0.1875q0.5 0 0.96875 0.28125l-0.453125 1.28125q-0.375 -0.25 -0.6875 -0.25q-0.3125 0 -0.53125 0.171875q-0.203125 0.171875 -0.328125 0.625q-0.109375 0.4375 -0.109375 1.84375l0 1.703125zm12.196182 0l-1.671875 0l-0.671875 -1.734375l-3.046875 0l-0.625 1.734375l-1.640625 0l2.96875 -7.625l1.625 0l3.0625 7.625zm-2.84375 -3.015625l-1.046875 -2.828125l-1.03125 2.828125l2.078125 0z" fill-rule="nonzero"/><path fill="#010000" fill-opacity="0.0" d="m112.828415 9.592697l2.9606476 0l0 12.253647l-2.9606476 0l0 -12.253647z" fill-rule="nonzero"/><path fill="#ffffff" d="m113.59404 19.239517l0 -1.46875l1.46875 0l0 1.46875l-1.46875 0z" fill-rule="nonzero"/><path fill="#010000" fill-opacity="0.0" d="m115.78906 9.592697l0 0l0 12.253647l0 0l0 -12.253647z" fill-rule="nonzero"/><path fill="#000000" fill-opacity="0.0" d="m-3.0009656 244.65306l0 -91.46457l32.31496 0l0 91.46457z" fill-rule="evenodd"/><path fill="#ffffff" d="m5.9990344 232.96301l0 -68.08449l12.799999 0l0 68.08449l-12.799999 0z" fill-rule="nonzero"/><path fill="#000000" fill-opacity="0.0" d="m6.592214 232.96301l0 -65.12384l12.253647 0l0 65.12384l-12.253647 0z" fill-rule="nonzero"/><path fill="#000000" d="m10.707784 229.28362l0 -1.375l0.8125 0q-0.40625 -0.265625 -0.671875 -0.703125q-0.265625 -0.453125 -0.265625 -1.015625q0 -0.953125 0.765625 -1.625q0.75 -0.671875 2.09375 -0.671875q1.390625 0 2.15625 0.671875q0.76562595 0.671875 0.76562595 1.640625q0 0.453125 -0.171875 0.828125q-0.1875 0.375 -0.64062595 0.78125l2.796876 0l0 1.46875l-7.640626 0zm2.671875 -1.453125q0.9375 0 1.390625 -0.359375q0.4375 -0.375 0.4375 -0.90625q0 -0.515625 -0.40625 -0.84375q-0.421875 -0.34375 -1.34375 -0.34375q-0.875 0 -1.296875 0.359375q-0.421875 0.34375 -0.421875 0.859375q0 0.53125 0.421875 0.890625q0.40625 0.34375 1.21875 0.34375zm1.5 -9.728012l1.359376 0l0 5.125q-0.76562595 -0.078125 -1.453126 -0.5q-0.703125 -0.421875 -1.828125 -1.640625q-0.921875 -0.984375 -1.25 -1.21875q-0.453125 -0.296875 -0.90625 -0.296875q-0.484375 0 -0.75 0.265625q-0.265625 0.265625 -0.265625 0.71875q0 0.453125 0.28125 0.734375q0.28125 0.265625 0.921875 0.3125l-0.15625 1.453125q-1.203125 -0.125 -1.71875 -0.8125q-0.53125 -0.6875 -0.53125 -1.71875q0 -1.125 0.609375 -1.765625q0.609375 -0.65625 1.515625 -0.65625q0.515625 0 0.984375 0.1875q0.453125 0.1875 0.96875 0.578125q0.34375 0.265625 0.984375 0.96875q0.625 0.6875 0.828125 0.875q0.203125 0.171875 0.40625 0.296875l0 -2.90625zm-4.171875 -1.2546234l0 -1.375l0.8125 0q-0.40625 -0.265625 -0.671875 -0.703125q-0.265625 -0.453125 -0.265625 -1.015625q0 -0.953125 0.765625 -1.625q0.75 -0.671875 2.09375 -0.671875q1.390625 0 2.15625 0.671875q0.76562595 0.671875 0.76562595 1.640625q0 0.453125 -0.171875 0.828125q-0.1875 0.375 -0.64062595 0.78125l2.796876 0l0 1.46875l-7.640626 0zm2.671875 -1.453125q0.9375 0 1.390625 -0.359375q0.4375 -0.375 0.4375 -0.90625q0 -0.515625 -0.40625 -0.84375q-0.421875 -0.34375 -1.34375 -0.34375q-0.875 0 -1.296875 0.359375q-0.421875 0.34375 -0.421875 0.859375q0 0.53125 0.421875 0.890625q0.40625 0.34375 1.21875 0.34375zm0.828125 -4.946762l-1.46875 0l0 -2.859375l1.46875 0l0 2.859375zm2.031251 -4.7361145l-5.531251 1.75l0 -1.421875l3.625 -1.03125l-3.625 -0.953125l0 -1.40625l3.625 -0.921875l-3.625 -1.0625l0 -1.4375l5.531251 1.765625l0 1.40625l-3.546876 0.953125l3.546876 0.9375l0 1.421875zm-1.765626 -10.460648l0.25 -1.453125q0.796875 0.28125 1.21875 0.890625q0.42187595 0.609375 0.42187595 1.515625q0 1.4375 -0.93750095 2.125q-0.765625 0.546875 -1.90625 0.546875q-1.375 0 -2.15625 -0.71875q-0.78125 -0.71875 -0.78125 -1.8125q0 -1.234375 0.828125 -1.9375q0.8125 -0.71875 2.484375 -0.6875l0 3.65625q0.65625 -0.015625 1.015625 -0.34375q0.359375 -0.34375 0.359375 -0.84375q0 -0.34375 -0.1875 -0.578125q-0.1875 -0.234375 -0.609375 -0.359375zm-1.46875 -0.078125q-0.640625 0.015625 -0.96875 0.328125q-0.328125 0.3125 -0.328125 0.765625q0 0.46875 0.34375 0.78125q0.359375 0.3125 0.953125 0.3125l0 -2.1875zm3.234376 -2.5827484l-7.625001 0l0 -1.46875l2.75 0q-0.78125 -0.671875 -0.78125 -1.59375q0 -1.015625 0.734375 -1.671875q0.734375 -0.65625 2.109375 -0.65625q1.40625 0 2.171875 0.671875q0.76562595 0.671875 0.76562595 1.640625q0 0.46875 -0.234375 0.9375q-0.23437595 0.453125 -0.70312595 0.78125l0.81250095 0l0 1.359375zm-2.875001 -1.453125q0.84375 0 1.265625 -0.265625q0.578125 -0.375 0.578125 -1.015625q0 -0.484375 -0.40625 -0.8125q-0.421875 -0.34375 -1.3125 -0.34375q-0.9375 0 -1.359375 0.34375q-0.421875 0.34375 -0.421875 0.875q0 0.53125 0.40625 0.875q0.40625 0.34375 1.25 0.34375zm-0.96875 -6.212387l-0.234375 1.328125q-0.796875 -0.21875 -1.1875 -0.765625q-0.390625 -0.546875 -0.390625 -1.625q0 -0.984375 0.234375 -1.453125q0.234375 -0.484375 0.59375 -0.671875q0.359375 -0.203125 1.3125 -0.203125l1.703125 0.015625q0.71875 0 1.078125 -0.0625q0.34375 -0.078125 0.73437595 -0.265625l0 1.4375q-0.140625 0.0625 -0.43750095 0.140625q-0.125 0.046875 -0.171875 0.0625q0.37500095 0.375 0.56250095 0.796875q0.171875 0.421875 0.171875 0.90625q0 0.859375 -0.45312595 1.359375q-0.46875 0.484375 -1.1875 0.484375q-0.46875 0 -0.828125 -0.21875q-0.359375 -0.234375 -0.546875 -0.640625q-0.203125 -0.40625 -0.359375 -1.15625q-0.1875 -1.03125 -0.359375 -1.421875l-0.140625 0q-0.421875 0 -0.59375 0.21875q-0.1875 0.203125 -0.1875 0.78125q0 0.375 0.15625 0.59375q0.15625 0.21875 0.53125 0.359375zm1.1875 -1.953125q0.09375 0.28125 0.234375 0.890625q0.125 0.609375 0.25 0.796875q0.203125 0.28125 0.515625 0.28125q0.296875 0 0.53125 -0.21875q0.21875 -0.234375 0.21875 -0.59375q0 -0.390625 -0.265625 -0.75q-0.1875 -0.265625 -0.484375 -0.34375q-0.1875 -0.0625 -0.703125 -0.0625l-0.296875 0zm-2.875 -2.8327484l0 -1.375l0.8125 0q-0.40625 -0.265625 -0.671875 -0.703125q-0.265625 -0.453125 -0.265625 -1.015625q0 -0.953125 0.765625 -1.625q0.75 -0.671875 2.09375 -0.671875q1.390625 0 2.15625 0.671875q0.76562595 0.671875 0.76562595 1.640625q0 0.453125 -0.171875 0.828125q-0.1875 0.375 -0.64062595 0.78125l2.796876 0l0 1.46875l-7.640626 0zm2.671875 -1.453125q0.9375 0 1.390625 -0.359375q0.4375 -0.375 0.4375 -0.90625q0 -0.515625 -0.40625 -0.84375q-0.421875 -0.34375 -1.34375 -0.34375q-0.875 0 -1.296875 0.359375q-0.421875 0.34375 -0.421875 0.859375q0 0.53125 0.421875 0.890625q0.40625 0.34375 1.21875 0.34375zm-2.671875 -5.056137l0 -1.375l0.8125 0q-0.40625 -0.265625 -0.671875 -0.703125q-0.265625 -0.453125 -0.265625 -1.015625q0 -0.953125 0.765625 -1.625q0.75 -0.671875 2.09375 -0.671875q1.390625 0 2.15625 0.671875q0.76562595 0.671875 0.76562595 1.640625q0 0.453125 -0.171875 0.828125q-0.1875 0.375 -0.64062595 0.78125l2.796876 0l0 1.46875l-7.640626 0zm2.671875 -1.453125q0.9375 0 1.390625 -0.359375q0.4375 -0.375 0.4375 -0.90625q0 -0.515625 -0.40625 -0.84375q-0.421875 -0.34375 -1.34375 -0.34375q-0.875 0 -1.296875 0.359375q-0.421875 0.34375 -0.421875 0.859375q0 0.53125 0.421875 0.890625q0.40625 0.34375 1.21875 0.34375z" fill-rule="nonzero"/><path fill="#010000" fill-opacity="0.0" d="m6.592214 167.83917l0 -2.9606476l12.253647 0l0 2.9606476l-12.253647 0z" fill-rule="nonzero"/><path fill="#ffffff" d="m16.239035 167.07355l-1.468751 0l0 -1.46875l1.468751 0l0 1.46875z" fill-rule="nonzero"/><path fill="#010000" fill-opacity="0.0" d="m6.592214 164.87852l0 0l12.253647 0l0 0l-12.253647 0z" fill-rule="nonzero"/><path fill="#000000" fill-opacity="0.0" d="m40.64562 369.263l91.46457 0l0 32.314972l-91.46457 0z" fill-rule="evenodd"/><path fill="#ffffff" d="m56.768826 378.263l59.21815 0l0 12.799988l-59.21815 0l0 -12.799988z" fill-rule="nonzero"/><path fill="#000000" fill-opacity="0.0" d="m56.768826 378.85617l56.257504 0l0 12.253662l-56.257504 0l0 -12.253662z" fill-rule="nonzero"/><path fill="#000000" d="m60.510723 380.878l3.046875 0q0.9062462 0 1.3437462 0.078125q0.453125 0.0625 0.796875 0.3125q0.359375 0.234375 0.59375 0.640625q0.234375 0.390625 0.234375 0.890625q0 0.53125 -0.296875 0.984375q-0.28125 0.4375 -0.78125 0.671875q0.703125 0.203125 1.078125 0.6875q0.375 0.484375 0.375 1.140625q0 0.53125 -0.25 1.03125q-0.234375 0.484375 -0.65625 0.78125q-0.421875 0.28125 -1.03125 0.359375q-0.390625 0.03125 -1.8593712 0.046875l-2.59375 0l0 -7.625zm1.546875 1.265625l0 1.765625l1.0 0q0.90625 0 1.1249962 -0.03125q0.390625 -0.046875 0.609375 -0.265625q0.234375 -0.234375 0.234375 -0.59375q0 -0.359375 -0.203125 -0.578125q-0.1875 -0.21875 -0.578125 -0.265625q-0.21875 -0.03125 -1.3124962 -0.03125l-0.875 0zm0 3.03125l0 2.046875l1.421875 0q0.8281212 0 1.0468712 -0.046875q0.34375 -0.0625 0.5625 -0.296875q0.21875 -0.25 0.21875 -0.65625q0 -0.34375 -0.171875 -0.578125q-0.15625 -0.25 -0.484375 -0.359375q-0.3125 -0.109375 -1.3593712 -0.109375l-1.234375 0zm7.5393486 3.328125l-1.46875 0l0 -5.53125l1.359375 0l0 0.796875q0.34375 -0.5625 0.625 -0.734375q0.28125 -0.1875 0.625 -0.1875q0.5 0 0.96875 0.28125l-0.453125 1.28125q-0.375 -0.25 -0.6875 -0.25q-0.3125 0 -0.53125 0.171875q-0.203125 0.171875 -0.328125 0.625q-0.109375 0.4375 -0.109375 1.84375l0 1.703125zm2.396988 -2.84375q0 -0.71875 0.359375 -1.40625q0.359375 -0.6875 1.015625 -1.046875q0.671875 -0.359375 1.46875 -0.359375q1.265625 0 2.0625 0.828125q0.796875 0.8125 0.796875 2.046875q0 1.25 -0.8125 2.078125q-0.796875 0.828125 -2.03125 0.828125q-0.75 0 -1.453125 -0.34375q-0.6875 -0.34375 -1.046875 -1.0q-0.359375 -0.671875 -0.359375 -1.625zm1.5 0.078125q0 0.828125 0.390625 1.265625q0.390625 0.4375 0.96875 0.4375q0.5625 0 0.953125 -0.4375q0.390625 -0.4375 0.390625 -1.265625q0 -0.8125 -0.390625 -1.25q-0.390625 -0.4375 -0.953125 -0.4375q-0.578125 0 -0.96875 0.4375q-0.390625 0.4375 -0.390625 1.25zm6.384262 2.765625l-1.75 -5.53125l1.421875 0l1.03125 3.625l0.953125 -3.625l1.40625 0l0.921875 3.625l1.0625 -3.625l1.4375 0l-1.765625 5.53125l-1.40625 0l-0.953125 -3.546875l-0.9375 3.546875l-1.421875 0zm6.7418976 -1.578125l1.46875 -0.21875q0.09375 0.421875 0.375 0.640625q0.296875 0.21875 0.796875 0.21875q0.578125 0 0.859375 -0.203125q0.1875 -0.140625 0.1875 -0.390625q0 -0.171875 -0.09375 -0.28125q-0.109375 -0.09375 -0.5 -0.1875q-1.765625 -0.390625 -2.234375 -0.703125q-0.65625 -0.453125 -0.65625 -1.25q0 -0.71875 0.5625 -1.203125q0.578125 -0.5 1.765625 -0.5q1.125 0 1.671875 0.375q0.5625 0.375 0.765625 1.09375l-1.375 0.25q-0.09375 -0.3125 -0.34375 -0.484375q-0.234375 -0.171875 -0.703125 -0.171875q-0.5625 0 -0.8125 0.15625q-0.171875 0.109375 -0.171875 0.296875q0 0.15625 0.140625 0.265625q0.203125 0.140625 1.359375 0.40625q1.171875 0.265625 1.640625 0.65625q0.453125 0.390625 0.453125 1.078125q0 0.765625 -0.640625 1.3125q-0.625 0.546875 -1.875 0.546875q-1.125 0 -1.78125 -0.453125q-0.65625 -0.46875 -0.859375 -1.25zm9.645248 -0.1875l1.453125 0.25q-0.28125 0.796875 -0.890625 1.21875q-0.609375 0.421875 -1.515625 0.421875q-1.4375 0 -2.125 -0.9375q-0.546875 -0.765625 -0.546875 -1.90625q0 -1.375 0.71875 -2.15625q0.71875 -0.78125 1.8125 -0.78125q1.234375 0 1.9375 0.828125q0.71875 0.8125 0.6875 2.484375l-3.65625 0q0.015625 0.65625 0.34375 1.015625q0.34375 0.359375 0.84375 0.359375q0.34375 0 0.578125 -0.1875q0.234375 -0.1875 0.359375 -0.609375zm0.078125 -1.46875q-0.015625 -0.640625 -0.328125 -0.96875q-0.3125 -0.328125 -0.765625 -0.328125q-0.46875 0 -0.78125 0.34375q-0.3125 0.359375 -0.3125 0.953125l2.1875 0zm4.0514984 3.234375l-1.46875 0l0 -5.53125l1.359375 0l0 0.796875q0.34375 -0.5625 0.625 -0.734375q0.28125 -0.1875 0.625 -0.1875q0.5 0 0.96875 0.28125l-0.453125 1.28125q-0.375 -0.25 -0.6875 -0.25q-0.3125 0 -0.53125 0.171875q-0.203125 0.171875 -0.328125 0.625q-0.109375 0.4375 -0.109375 1.84375l0 1.703125zm5.7170105 -7.625l3.046875 0q0.90625 0 1.34375 0.078125q0.453125 0.0625 0.796875 0.3125q0.359375 0.234375 0.59375 0.640625q0.234375 0.390625 0.234375 0.890625q0 0.53125 -0.296875 0.984375q-0.28125 0.4375 -0.78125 0.671875q0.703125 0.203125 1.078125 0.6875q0.375 0.484375 0.375 1.140625q0 0.53125 -0.25 1.03125q-0.234375 0.484375 -0.65625 0.78125q-0.421875 0.28125 -1.03125 0.359375q-0.390625 0.03125 -1.859375 0.046875l-2.59375 0l0 -7.625zm1.546875 1.265625l0 1.765625l1.0 0q0.90625 0 1.125 -0.03125q0.390625 -0.046875 0.609375 -0.265625q0.234375 -0.234375 0.234375 -0.59375q0 -0.359375 -0.203125 -0.578125q-0.1875 -0.21875 -0.578125 -0.265625q-0.21875 -0.03125 -1.3125 -0.03125l-0.875 0zm0 3.03125l0 2.046875l1.421875 0q0.828125 0 1.046875 -0.046875q0.34375 -0.0625 0.5625 -0.296875q0.21875 -0.25 0.21875 -0.65625q0 -0.34375 -0.171875 -0.578125q-0.15625 -0.25 -0.484375 -0.359375q-0.3125 -0.109375 -1.359375 -0.109375l-1.234375 0z" fill-rule="nonzero"/><path fill="#010000" fill-opacity="0.0" d="m113.02633 378.85617l2.9606476 0l0 12.253662l-2.9606476 0l0 -12.253662z" fill-rule="nonzero"/><path fill="#ffffff" d="m113.791954 388.503l0 -1.46875l1.46875 0l0 1.46875l-1.46875 0z" fill-rule="nonzero"/><path fill="#010000" fill-opacity="0.0" d="m115.98698 378.85617l0 0l0 12.253662l0 0l0 -12.253662z" fill-rule="nonzero"/><path fill="#000000" fill-opacity="0.0" d="m91.10236 62.212597l99.99999 109.00787" fill-rule="evenodd"/><path stroke="#000000" stroke-width="3.0" stroke-linejoin="round" stroke-linecap="butt" d="m91.10236 62.212597l99.99999 109.00787" fill-rule="evenodd"/><path fill="#000000" fill-opacity="0.0" d="m191.10236 223.20209l-102.99212 127.02362" fill-rule="evenodd"/><path stroke="#000000" stroke-width="3.0" stroke-linejoin="round" stroke-linecap="butt" d="m191.10236 223.20209l-102.99212 127.02362" fill-rule="evenodd"/><path fill="#ff9900" d="m481.61154 159.66705l0 0c0 -10.840073 8.787628 -19.627686 19.627686 -19.627686l186.19345 0c5.2055664 0 10.197937 2.0679169 13.878845 5.748825c3.6809082 3.680893 5.7488403 8.673279 5.7488403 13.87886l0 78.50841c0 10.840073 -8.787598 19.6277 -19.627686 19.6277l-186.19345 0c-10.840057 0 -19.627686 -8.787628 -19.627686 -19.6277z" fill-rule="evenodd"/><path stroke="#595959" stroke-width="2.0" stroke-linejoin="round" stroke-linecap="butt" d="m481.61154 159.66705l0 0c0 -10.840073 8.787628 -19.627686 19.627686 -19.627686l186.19345 0c5.2055664 0 10.197937 2.0679169 13.878845 5.748825c3.6809082 3.680893 5.7488403 8.673279 5.7488403 13.87886l0 78.50841c0 10.840073 -8.787598 19.6277 -19.627686 19.6277l-186.19345 0c-10.840057 0 -19.627686 -8.787628 -19.627686 -19.6277z" fill-rule="evenodd"/><path fill="#000000" fill-opacity="0.0" d="m598.9606 4.2856064l91.4646 0l0 32.31496l-91.4646 0z" fill-rule="evenodd"/><path fill="#ffffff" d="m615.0838 13.285606l59.21814 0l0 12.799999l-59.21814 0l0 -12.799999z" fill-rule="nonzero"/><path fill="#000000" fill-opacity="0.0" d="m615.0838 13.878786l56.257507 0l0 12.253647l-56.257507 0l0 -12.253647z" fill-rule="nonzero"/><path fill="#000000" d="m618.8257 15.900606l3.046875 0q0.90625 0 1.34375 0.078125q0.453125 0.0625 0.796875 0.3125q0.359375 0.234375 0.59375 0.640625q0.234375 0.390625 0.234375 0.890625q0 0.53125 -0.296875 0.984375q-0.28125 0.4375 -0.78125 0.671875q0.703125 0.203125 1.078125 0.6875q0.375 0.484375 0.375 1.140625q0 0.53125 -0.25 1.03125q-0.234375 0.484375 -0.65625 0.78125q-0.421875 0.28125 -1.03125 0.359375q-0.390625 0.03125 -1.859375 0.046875l-2.59375 0l0 -7.625zm1.546875 1.265625l0 1.765625l1.0 0q0.90625 0 1.125 -0.03125q0.390625 -0.046875 0.609375 -0.265625q0.234375 -0.234375 0.234375 -0.59375q0 -0.359375 -0.203125 -0.578125q-0.1875 -0.21875 -0.578125 -0.265625q-0.21875 -0.03125 -1.3125 -0.03125l-0.875 0zm0 3.03125l0 2.046875l1.421875 0q0.828125 0 1.046875 -0.046875q0.34375 -0.0625 0.5625 -0.296875q0.21875 -0.25 0.21875 -0.65625q0 -0.34375 -0.171875 -0.578125q-0.15625 -0.25 -0.484375 -0.359375q-0.3125 -0.109375 -1.359375 -0.109375l-1.234375 0zm7.5393677 3.328125l-1.46875 0l0 -5.53125l1.359375 0l0 0.796875q0.34375 -0.5625 0.625 -0.734375q0.28125 -0.1875 0.625 -0.1875q0.5 0 0.96875 0.28125l-0.453125 1.28125q-0.375 -0.25 -0.6875 -0.25q-0.3125 0 -0.53125 0.171875q-0.203125 0.171875 -0.328125 0.625q-0.109375 0.4375 -0.109375 1.84375l0 1.703125zm2.3969727 -2.84375q0 -0.71875 0.359375 -1.40625q0.359375 -0.6875 1.015625 -1.046875q0.671875 -0.359375 1.46875 -0.359375q1.265625 0 2.0625 0.828125q0.796875 0.8125 0.796875 2.046875q0 1.25 -0.8125 2.078125q-0.796875 0.828125 -2.03125 0.828125q-0.75 0 -1.453125 -0.34375q-0.6875 -0.34375 -1.046875 -1.0q-0.359375 -0.671875 -0.359375 -1.625zm1.5 0.078125q0 0.828125 0.390625 1.265625q0.390625 0.4375 0.96875 0.4375q0.5625 0 0.953125 -0.4375q0.390625 -0.4375 0.390625 -1.265625q0 -0.8125 -0.390625 -1.25q-0.390625 -0.4375 -0.953125 -0.4375q-0.578125 0 -0.96875 0.4375q-0.390625 0.4375 -0.390625 1.25zm6.3842773 2.765625l-1.75 -5.53125l1.421875 0l1.03125 3.625l0.953125 -3.625l1.40625 0l0.921875 3.625l1.0625 -3.625l1.4375 0l-1.765625 5.53125l-1.40625 0l-0.953125 -3.546875l-0.9375 3.546875l-1.421875 0zm6.7418823 -1.578125l1.46875 -0.21875q0.09375 0.421875 0.375 0.640625q0.296875 0.21875 0.796875 0.21875q0.578125 0 0.859375 -0.203125q0.1875 -0.140625 0.1875 -0.390625q0 -0.171875 -0.09375 -0.28125q-0.109375 -0.09375 -0.5 -0.1875q-1.765625 -0.390625 -2.234375 -0.703125q-0.65625 -0.453125 -0.65625 -1.25q0 -0.71875 0.5625 -1.203125q0.578125 -0.5 1.765625 -0.5q1.125 0 1.671875 0.375q0.5625 0.375 0.765625 1.09375l-1.375 0.25q-0.09375 -0.3125 -0.34375 -0.484375q-0.234375 -0.171875 -0.703125 -0.171875q-0.5625 0 -0.8125 0.15625q-0.171875 0.109375 -0.171875 0.296875q0 0.15625 0.140625 0.265625q0.203125 0.140625 1.359375 0.40625q1.171875 0.265625 1.640625 0.65625q0.453125 0.390625 0.453125 1.078125q0 0.765625 -0.640625 1.3125q-0.625 0.546875 -1.875 0.546875q-1.125 0 -1.78125 -0.453125q-0.65625 -0.46875 -0.859375 -1.25zm9.645264 -0.1875l1.453125 0.25q-0.28125 0.796875 -0.890625 1.21875q-0.609375 0.421875 -1.515625 0.421875q-1.4375 0 -2.125 -0.9375q-0.546875 -0.765625 -0.546875 -1.90625q0 -1.375 0.71875 -2.15625q0.71875 -0.78125 1.8125 -0.78125q1.234375 0 1.9375 0.828125q0.71875 0.8125 0.6875 2.484375l-3.65625 0q0.015625 0.65625 0.34375 1.015625q0.34375 0.359375 0.84375 0.359375q0.34375 0 0.578125 -0.1875q0.234375 -0.1875 0.359375 -0.609375zm0.078125 -1.46875q-0.015625 -0.640625 -0.328125 -0.96875q-0.3125 -0.328125 -0.765625 -0.328125q-0.46875 0 -0.78125 0.34375q-0.3125 0.359375 -0.3125 0.953125l2.1875 0zm4.0514526 3.234375l-1.46875 0l0 -5.53125l1.359375 0l0 0.796875q0.34375 -0.5625 0.625 -0.734375q0.28125 -0.1875 0.625 -0.1875q0.5 0 0.96875 0.28125l-0.453125 1.28125q-0.375 -0.25 -0.6875 -0.25q-0.3125 0 -0.53125 0.171875q-0.203125 0.171875 -0.328125 0.625q-0.109375 0.4375 -0.109375 1.84375l0 1.703125zm10.592041 -2.796875l1.5 0.46875q-0.34375 1.25 -1.15625 1.859375q-0.796875 0.59375 -2.015625 0.59375q-1.515625 0 -2.5 -1.03125q-0.984375 -1.046875 -0.984375 -2.84375q0 -1.90625 0.984375 -2.953125q0.984375 -1.0625 2.59375 -1.0625q1.390625 0 2.265625 0.828125q0.53125 0.5 0.78125 1.40625l-1.515625 0.375q-0.140625 -0.59375 -0.578125 -0.9375q-0.421875 -0.34375 -1.03125 -0.34375q-0.859375 0 -1.390625 0.609375q-0.515625 0.609375 -0.515625 1.96875q0 1.4375 0.515625 2.0625q0.515625 0.609375 1.359375 0.609375q0.609375 0 1.046875 -0.390625q0.453125 -0.390625 0.640625 -1.21875z" fill-rule="nonzero"/><path fill="#010000" fill-opacity="0.0" d="m671.3413 13.878786l2.9606323 0l0 12.253647l-2.9606323 0l0 -12.253647z" fill-rule="nonzero"/><path fill="#ffffff" d="m672.10693 23.525606l0 -1.46875l1.46875 0l0 1.46875l-1.46875 0z" fill-rule="nonzero"/><path fill="#010000" fill-opacity="0.0" d="m674.30194 13.878786l0 0l0 12.253647l0 0l0 -12.253647z" fill-rule="nonzero"/><path fill="#000000" fill-opacity="0.0" d="m739.3744 151.12022l0 91.46457l-32.315002 0l0 -91.46457z" fill-rule="evenodd"/><path fill="#ffffff" d="m730.3744 162.81027l0 68.08449l-12.800049 0l0 -68.08449l12.800049 0z" fill-rule="nonzero"/><path fill="#000000" fill-opacity="0.0" d="m729.7812 162.81027l0 65.12384l-12.253662 0l0 -65.12384l12.253662 0z" fill-rule="nonzero"/><path fill="#000000" d="m725.6656 166.48967l0 1.375l-0.8125 0q0.40625 0.265625 0.671875 0.703125q0.265625 0.453125 0.265625 1.015625q0 0.953125 -0.765625 1.625q-0.75 0.671875 -2.09375 0.671875q-1.390625 0 -2.15625 -0.671875q-0.765625 -0.671875 -0.765625 -1.640625q0 -0.453125 0.171875 -0.828125q0.1875 -0.375 0.640625 -0.78125l-2.796875 0l0 -1.46875l7.640625 0zm-2.671875 1.453125q-0.9375 0 -1.390625 0.359375q-0.4375 0.375 -0.4375 0.90625q0 0.515625 0.40625 0.84375q0.421875 0.34375 1.34375 0.34375q0.875 0 1.296875 -0.359375q0.421875 -0.34375 0.421875 -0.859375q0 -0.53125 -0.421875 -0.890625q-0.40625 -0.34375 -1.21875 -0.34375zm-1.5 9.728012l-1.359375 0l0 -5.125q0.765625 0.078125 1.453125 0.5q0.703125 0.421875 1.828125 1.640625q0.921875 0.984375 1.25 1.21875q0.453125 0.296875 0.90625 0.296875q0.484375 0 0.75 -0.265625q0.265625 -0.265625 0.265625 -0.71875q0 -0.453125 -0.28125 -0.734375q-0.28125 -0.265625 -0.921875 -0.3125l0.15625 -1.453125q1.203125 0.125 1.71875 0.8125q0.53125 0.6875 0.53125 1.71875q0 1.125 -0.609375 1.765625q-0.609375 0.65625 -1.515625 0.65625q-0.515625 0 -0.984375 -0.1875q-0.453125 -0.1875 -0.96875 -0.578125q-0.34375 -0.265625 -0.984375 -0.96875q-0.625 -0.6875 -0.828125 -0.875q-0.203125 -0.171875 -0.40625 -0.296875l0 2.90625zm4.171875 1.2546234l0 1.375l-0.8125 0q0.40625 0.265625 0.671875 0.703125q0.265625 0.453125 0.265625 1.015625q0 0.953125 -0.765625 1.625q-0.75 0.671875 -2.09375 0.671875q-1.390625 0 -2.15625 -0.671875q-0.765625 -0.671875 -0.765625 -1.640625q0 -0.453125 0.171875 -0.828125q0.1875 -0.375 0.640625 -0.78125l-2.796875 0l0 -1.46875l7.640625 0zm-2.671875 1.453125q-0.9375 0 -1.390625 0.359375q-0.4375 0.375 -0.4375 0.90625q0 0.515625 0.40625 0.84375q0.421875 0.34375 1.34375 0.34375q0.875 0 1.296875 -0.359375q0.421875 -0.34375 0.421875 -0.859375q0 -0.53125 -0.421875 -0.890625q-0.40625 -0.34375 -1.21875 -0.34375zm-0.828125 4.946762l1.46875 0l0 2.859375l-1.46875 0l0 -2.859375zm-2.03125 4.7361145l5.53125 -1.75l0 1.421875l-3.625 1.03125l3.625 0.953125l0 1.40625l-3.625 0.921875l3.625 1.0625l0 1.4375l-5.53125 -1.765625l0 -1.40625l3.546875 -0.953125l-3.546875 -0.9375l0 -1.421875zm1.765625 10.460648l-0.25 1.453125q-0.796875 -0.28125 -1.21875 -0.890625q-0.421875 -0.609375 -0.421875 -1.515625q0 -1.4375 0.9375 -2.125q0.765625 -0.546875 1.90625 -0.546875q1.375 0 2.15625 0.71875q0.78125 0.71875 0.78125 1.8125q0 1.234375 -0.828125 1.9375q-0.8125 0.71875 -2.484375 0.6875l0 -3.65625q-0.65625 0.015625 -1.015625 0.34375q-0.359375 0.34375 -0.359375 0.84375q0 0.34375 0.1875 0.578125q0.1875 0.234375 0.609375 0.359375zm1.46875 0.078125q0.640625 -0.015625 0.96875 -0.328125q0.328125 -0.3125 0.328125 -0.765625q0 -0.46875 -0.34375 -0.78125q-0.359375 -0.3125 -0.953125 -0.3125l0 2.1875zm-3.234375 2.5827484l7.625 0l0 1.46875l-2.75 0q0.78125 0.671875 0.78125 1.59375q0 1.015625 -0.734375 1.671875q-0.734375 0.65625 -2.109375 0.65625q-1.40625 0 -2.171875 -0.671875q-0.765625 -0.671875 -0.765625 -1.640625q0 -0.46875 0.234375 -0.9375q0.234375 -0.453125 0.703125 -0.78125l-0.8125 0l0 -1.359375zm2.875 1.453125q-0.84375 0 -1.265625 0.265625q-0.578125 0.375 -0.578125 1.015625q0 0.484375 0.40625 0.8125q0.421875 0.34375 1.3125 0.34375q0.9375 0 1.359375 -0.34375q0.421875 -0.34375 0.421875 -0.875q0 -0.53125 -0.40625 -0.875q-0.40625 -0.34375 -1.25 -0.34375zm0.96875 6.212387l0.234375 -1.328125q0.796875 0.21875 1.1875 0.765625q0.390625 0.546875 0.390625 1.625q0 0.984375 -0.234375 1.453125q-0.234375 0.484375 -0.59375 0.671875q-0.359375 0.203125 -1.3125 0.203125l-1.703125 -0.015625q-0.71875 0 -1.078125 0.0625q-0.34375 0.078125 -0.734375 0.265625l0 -1.4375q0.140625 -0.0625 0.4375 -0.140625q0.125 -0.046875 0.171875 -0.0625q-0.375 -0.375 -0.5625 -0.796875q-0.171875 -0.421875 -0.171875 -0.90625q0 -0.859375 0.453125 -1.359375q0.46875 -0.484375 1.1875 -0.484375q0.46875 0 0.828125 0.21875q0.359375 0.234375 0.546875 0.640625q0.203125 0.40625 0.359375 1.15625q0.1875 1.03125 0.359375 1.421875l0.140625 0q0.421875 0 0.59375 -0.21875q0.1875 -0.203125 0.1875 -0.78125q0 -0.375 -0.15625 -0.59375q-0.15625 -0.21875 -0.53125 -0.359375zm-1.1875 1.953125q-0.09375 -0.28125 -0.234375 -0.890625q-0.125 -0.609375 -0.25 -0.796875q-0.203125 -0.28125 -0.515625 -0.28125q-0.296875 0 -0.53125 0.21875q-0.21875 0.234375 -0.21875 0.59375q0 0.390625 0.265625 0.75q0.1875 0.265625 0.484375 0.34375q0.1875 0.0625 0.703125 0.0625l0.296875 0zm2.875 2.8327484l0 1.375l-0.8125 0q0.40625 0.265625 0.671875 0.703125q0.265625 0.453125 0.265625 1.015625q0 0.953125 -0.765625 1.625q-0.75 0.671875 -2.09375 0.671875q-1.390625 0 -2.15625 -0.671875q-0.765625 -0.671875 -0.765625 -1.640625q0 -0.453125 0.171875 -0.828125q0.1875 -0.375 0.640625 -0.78125l-2.796875 0l0 -1.46875l7.640625 0zm-2.671875 1.453125q-0.9375 0 -1.390625 0.359375q-0.4375 0.375 -0.4375 0.90625q0 0.515625 0.40625 0.84375q0.421875 0.34375 1.34375 0.34375q0.875 0 1.296875 -0.359375q0.421875 -0.34375 0.421875 -0.859375q0 -0.53125 -0.421875 -0.890625q-0.40625 -0.34375 -1.21875 -0.34375zm2.671875 5.056137l0 1.375l-0.8125 0q0.40625 0.265625 0.671875 0.703125q0.265625 0.453125 0.265625 1.015625q0 0.953125 -0.765625 1.625q-0.75 0.671875 -2.09375 0.671875q-1.390625 0 -2.15625 -0.671875q-0.765625 -0.671875 -0.765625 -1.640625q0 -0.453125 0.171875 -0.828125q0.1875 -0.375 0.640625 -0.78125l-2.796875 0l0 -1.46875l7.640625 0zm-2.671875 1.453125q-0.9375 0 -1.390625 0.359375q-0.4375 0.375 -0.4375 0.90625q0 0.515625 0.40625 0.84375q0.421875 0.34375 1.34375 0.34375q0.875 0 1.296875 -0.359375q0.421875 -0.34375 0.421875 -0.859375q0 -0.53125 -0.421875 -0.890625q-0.40625 -0.34375 -1.21875 -0.34375z" fill-rule="nonzero"/><path fill="#010000" fill-opacity="0.0" d="m729.7812 227.93411l0 2.9606476l-12.253662 0l0 -2.9606476l12.253662 0z" fill-rule="nonzero"/><path fill="#ffffff" d="m720.13434 228.69974l1.46875 0l0 1.46875l-1.46875 0l0 -1.46875z" fill-rule="nonzero"/><path fill="#010000" fill-opacity="0.0" d="m729.7812 230.89476l0 0l-12.253662 0l0 0l12.253662 0z" fill-rule="nonzero"/><path fill="#eeeeee" d="m497.59317 179.45145l91.46457 0l0 37.228348l-91.46457 0z" fill-rule="evenodd"/><path stroke="#595959" stroke-width="2.0" stroke-linejoin="round" stroke-linecap="butt" d="m497.59317 179.45145l91.46457 0l0 37.228348l-91.46457 0z" fill-rule="evenodd"/><path fill="#000000" d="m515.731 204.98561l0 -13.359375l5.046875 0q1.328125 0 2.03125 0.125q0.96875 0.171875 1.640625 0.640625q0.671875 0.453125 1.078125 1.28125q0.40625 0.828125 0.40625 1.828125q0 1.703125 -1.09375 2.890625q-1.078125 1.171875 -3.921875 1.171875l-3.421875 0l0 5.421875l-1.765625 0zm1.765625 -7.0l3.453125 0q1.71875 0 2.4375 -0.640625q0.71875 -0.640625 0.71875 -1.796875q0 -0.84375 -0.421875 -1.4375q-0.421875 -0.59375 -1.125 -0.78125q-0.4375 -0.125 -1.640625 -0.125l-3.421875 0l0 4.78125zm17.099792 3.890625l1.6875 0.203125q-0.40625 1.484375 -1.484375 2.3125q-1.078125 0.8125 -2.765625 0.8125q-2.125 0 -3.375 -1.296875q-1.234375 -1.3125 -1.234375 -3.671875q0 -2.453125 1.25 -3.796875q1.265625 -1.34375 3.265625 -1.34375q1.9375 0 3.15625 1.328125q1.234375 1.3125 1.234375 3.703125q0 0.15625 0 0.4375l-7.21875 0q0.09375 1.59375 0.90625 2.453125q0.8125 0.84375 2.015625 0.84375q0.90625 0 1.546875 -0.46875q0.640625 -0.484375 1.015625 -1.515625zm-5.390625 -2.65625l5.40625 0q-0.109375 -1.21875 -0.625 -1.828125q-0.78125 -0.953125 -2.03125 -0.953125q-1.125 0 -1.90625 0.765625q-0.765625 0.75 -0.84375 2.015625zm15.766357 2.65625l1.6875 0.203125q-0.40625 1.484375 -1.484375 2.3125q-1.078125 0.8125 -2.765625 0.8125q-2.125 0 -3.375 -1.296875q-1.234375 -1.3125 -1.234375 -3.671875q0 -2.453125 1.25 -3.796875q1.265625 -1.34375 3.265625 -1.34375q1.9375 0 3.15625 1.328125q1.234375 1.3125 1.234375 3.703125q0 0.15625 0 0.4375l-7.21875 0q0.09375 1.59375 0.90625 2.453125q0.8125 0.84375 2.015625 0.84375q0.90625 0 1.546875 -0.46875q0.640625 -0.484375 1.015625 -1.515625zm-5.390625 -2.65625l5.40625 0q-0.109375 -1.21875 -0.625 -1.828125q-0.78125 -0.953125 -2.03125 -0.953125q-1.125 0 -1.90625 0.765625q-0.765625 0.75 -0.84375 2.015625zm9.125732 5.765625l0 -9.671875l1.46875 0l0 1.46875q0.5625 -1.03125 1.03125 -1.359375q0.484375 -0.328125 1.0625 -0.328125q0.828125 0 1.6875 0.53125l-0.5625 1.515625q-0.609375 -0.359375 -1.203125 -0.359375q-0.546875 0 -0.96875 0.328125q-0.421875 0.328125 -0.609375 0.890625q-0.28125 0.875 -0.28125 1.921875l0 5.0625l-1.625 0zm21.145935 -4.6875l1.765625 0.453125q-0.5625 2.171875 -2.0 3.328125q-1.4375 1.140625 -3.53125 1.140625q-2.15625 0 -3.515625 -0.875q-1.34375 -0.890625 -2.0625 -2.546875q-0.703125 -1.671875 -0.703125 -3.59375q0 -2.078125 0.796875 -3.625q0.796875 -1.5625 2.265625 -2.359375q1.484375 -0.8125 3.25 -0.8125q2.0 0 3.359375 1.015625q1.375 1.015625 1.90625 2.875l-1.734375 0.40625q-0.46875 -1.453125 -1.359375 -2.109375q-0.875 -0.671875 -2.203125 -0.671875q-1.546875 0 -2.578125 0.734375q-1.03125 0.734375 -1.453125 1.984375q-0.421875 1.234375 -0.421875 2.5625q0 1.703125 0.5 2.96875q0.5 1.265625 1.546875 1.90625q1.046875 0.625 2.265625 0.625q1.484375 0 2.515625 -0.859375q1.03125 -0.859375 1.390625 -2.546875z" fill-rule="nonzero"/><path fill="#000000" fill-opacity="0.0" d="m643.105 63.199474l-99.77954 116.25197" fill-rule="evenodd"/><path stroke="#000000" stroke-width="3.0" stroke-linejoin="round" stroke-linecap="butt" d="m643.105 63.199474l-99.77954 116.25197" fill-rule="evenodd"/><path fill="#000000" fill-opacity="0.0" d="m497.59317 198.06561l-42.393707 0.85040283" fill-rule="evenodd"/><path stroke="#000000" stroke-width="3.0" stroke-linejoin="round" stroke-linecap="butt" d="m497.59317 198.06561l-42.393707 0.85040283" fill-rule="evenodd"/><path fill="#eeeeee" d="m40.96063 149.33333l91.46457 0l0 96.8819l-91.46457 0z" fill-rule="evenodd"/><path stroke="#595959" stroke-width="2.0" stroke-linejoin="round" stroke-linecap="butt" d="m40.96063 149.33333l91.46457 0l0 96.8819l-91.46457 0z" fill-rule="evenodd"/><path fill="#000000" d="m73.04897 171.69427l0 -5.65625l-5.15625 -7.703125l2.15625 0l2.640625 4.03125q0.71875 1.125 1.34375 2.265625q0.609375 -1.046875 1.46875 -2.359375l2.578125 -3.9375l2.0625 0l-5.328125 7.703125l0 5.65625l-1.765625 0zm6.1519012 -4.84375q0 -2.6875 1.484375 -3.96875q1.25 -1.078125 3.046875 -1.078125q2.0 0 3.265625 1.3125q1.265625 1.296875 1.265625 3.609375q0 1.859375 -0.5625 2.9375q-0.5625 1.0625 -1.640625 1.65625q-1.0625 0.59375 -2.328125 0.59375q-2.03125 0 -3.28125 -1.296875q-1.25 -1.3125 -1.25 -3.765625zm1.6875 0q0 1.859375 0.796875 2.796875q0.8125 0.921875 2.046875 0.921875q1.21875 0 2.03125 -0.921875q0.8125 -0.9375 0.8125 -2.84375q0 -1.796875 -0.8125 -2.71875q-0.8125 -0.921875 -2.03125 -0.921875q-1.234375 0 -2.046875 0.921875q-0.796875 0.90625 -0.796875 2.765625zm15.625717 4.84375l0 -1.421875q-1.125 1.640625 -3.0625 1.640625q-0.859375 0 -1.609375 -0.328125q-0.734375 -0.328125 -1.09375 -0.828125q-0.359375 -0.5 -0.5 -1.21875q-0.109375 -0.46875 -0.109375 -1.53125l0 -5.984375l1.640625 0l0 5.359375q0 1.28125 0.109375 1.734375q0.15625 0.640625 0.65625 1.015625q0.5 0.375 1.234375 0.375q0.734375 0 1.375 -0.375q0.65625 -0.390625 0.921875 -1.03125q0.265625 -0.65625 0.265625 -1.890625l0 -5.1875l1.640625 0l0 9.671875l-1.46875 0zm4.031967 0l0 -9.671875l1.46875 0l0 1.46875q0.5625 -1.03125 1.03125 -1.359375q0.484375 -0.328125 1.0625 -0.328125q0.828125 0 1.6875 0.53125l-0.5625 1.515625q-0.609375 -0.359375 -1.203125 -0.359375q-0.546875 0 -0.96875 0.328125q-0.421875 0.328125 -0.609375 0.890625q-0.28125 0.875 -0.28125 1.921875l0 5.0625l-1.625 0z" fill-rule="nonzero"/><path fill="#000000" d="m63.496304 193.69427l5.125004 -13.359375l1.90625 0l5.46875 13.359375l-2.015625 0l-1.546875 -4.046875l-5.59375 0l-1.46875 4.046875l-1.8750038 0zm3.8593788 -5.484375l4.53125 0l-1.40625 -3.703125q-0.625 -1.6875 -0.9375 -2.765625q-0.265625 1.28125 -0.71875 2.546875l-1.46875 3.921875zm9.849823 9.1875l0 -13.375l1.484375 0l0 1.25q0.53125 -0.734375 1.1875 -1.09375q0.671875 -0.375 1.625 -0.375q1.234375 0 2.171875 0.640625q0.953125 0.625 1.4375 1.796875q0.484375 1.15625 0.484375 2.546875q0 1.484375 -0.53125 2.671875q-0.53125 1.1875 -1.546875 1.828125q-1.015625 0.625 -2.140625 0.625q-0.8125 0 -1.46875 -0.34375q-0.65625 -0.34375 -1.0625 -0.875l0 4.703125l-1.640625 0zm1.484375 -8.484375q0 1.859375 0.75 2.765625q0.765625 0.890625 1.828125 0.890625q1.09375 0 1.875 -0.921875q0.78125 -0.9375 0.78125 -2.875q0 -1.84375 -0.765625 -2.765625q-0.75 -0.921875 -1.8125 -0.921875q-1.046875 0 -1.859375 0.984375q-0.796875 0.96875 -0.796875 2.84375zm8.891342 8.484375l0 -13.375l1.484375 0l0 1.25q0.53125 -0.734375 1.1875 -1.09375q0.671875 -0.375 1.625 -0.375q1.234375 0 2.171875 0.640625q0.953125 0.625 1.4375 1.796875q0.484375 1.15625 0.484375 2.546875q0 1.484375 -0.53125 2.671875q-0.53125 1.1875 -1.546875 1.828125q-1.015625 0.625 -2.140625 0.625q-0.8125 0 -1.46875 -0.34375q-0.65625 -0.34375 -1.0625 -0.875l0 4.703125l-1.640625 0zm1.484375 -8.484375q0 1.859375 0.75 2.765625q0.765625 0.890625 1.828125 0.890625q1.09375 0 1.875 -0.921875q0.78125 -0.9375 0.78125 -2.875q0 -1.84375 -0.765625 -2.765625q-0.75 -0.921875 -1.8125 -0.921875q-1.046875 0 -1.859375 0.984375q-0.796875 0.96875 -0.796875 2.84375zm8.781967 -6.8125l0 -1.890625l1.765625 0l0 1.5q0 1.21875 -0.28125 1.75q-0.390625 0.75 -1.21875 1.109375l-0.40625 -0.640625q0.484375 -0.203125 0.71875 -0.625q0.25 -0.4375 0.28125 -1.203125l-0.859375 0zm3.2607117 8.703125l1.625 -0.25q0.125 0.96875 0.75 1.5q0.625 0.515625 1.75 0.515625q1.125 0 1.671875 -0.453125q0.546875 -0.46875 0.546875 -1.09375q0 -0.546875 -0.484375 -0.875q-0.328125 -0.21875 -1.671875 -0.546875q-1.8125 -0.46875 -2.515625 -0.796875q-0.6875 -0.328125 -1.046875 -0.90625q-0.359375 -0.59375 -0.359375 -1.3125q0 -0.640625 0.296875 -1.1875q0.296875 -0.5625 0.8125 -0.921875q0.375 -0.28125 1.03125 -0.46875q0.671875 -0.203125 1.421875 -0.203125q1.140625 0 2.0 0.328125q0.859375 0.328125 1.265625 0.890625q0.421875 0.5625 0.578125 1.5l-1.609375 0.21875q-0.109375 -0.75 -0.640625 -1.171875q-0.515625 -0.421875 -1.46875 -0.421875q-1.140625 0 -1.625 0.375q-0.46875 0.375 -0.46875 0.875q0 0.3125 0.1875 0.578125q0.203125 0.265625 0.640625 0.4375q0.234375 0.09375 1.4375 0.421875q1.75 0.453125 2.4375 0.75q0.6875 0.296875 1.078125 0.859375q0.390625 0.5625 0.390625 1.40625q0 0.828125 -0.484375 1.546875q-0.46875 0.71875 -1.375 1.125q-0.90625 0.390625 -2.046875 0.390625q-1.875 0 -2.875 -0.78125q-0.984375 -0.78125 -1.25 -2.328125z" fill-rule="nonzero"/><path fill="#000000" d="m53.818798 215.69427l0 -13.359375l5.015625 0q1.53125 0 2.453125 0.40625q0.921875 0.40625 1.4375 1.25q0.53125 0.84375 0.53125 1.765625q0 0.859375 -0.46875 1.625q-0.453125 0.75 -1.390625 1.203125q1.203125 0.359375 1.859375 1.21875q0.65625 0.859375 0.65625 2.015625q0 0.9375 -0.40625 1.75q-0.390625 0.796875 -0.984375 1.234375q-0.578125 0.4375 -1.453125 0.671875q-0.875 0.21875 -2.15625 0.21875l-5.09375 0zm1.78125 -7.75l2.875 0q1.1875 0 1.6875 -0.140625q0.671875 -0.203125 1.015625 -0.671875q0.34375 -0.46875 0.34375 -1.171875q0 -0.65625 -0.328125 -1.15625q-0.3125 -0.515625 -0.90625 -0.703125q-0.59375 -0.1875 -2.03125 -0.1875l-2.65625 0l0 4.03125zm0 6.171875l3.3125 0q0.859375 0 1.203125 -0.0625q0.609375 -0.109375 1.015625 -0.359375q0.421875 -0.265625 0.6875 -0.75q0.265625 -0.484375 0.265625 -1.125q0 -0.75 -0.390625 -1.296875q-0.375 -0.546875 -1.0625 -0.765625q-0.671875 -0.234375 -1.953125 -0.234375l-3.078125 0l0 4.59375zm16.865452 1.578125l0 -1.421875q-1.125 1.640625 -3.0625 1.640625q-0.859375 0 -1.609375 -0.328125q-0.734375 -0.328125 -1.09375 -0.828125q-0.359375 -0.5 -0.5 -1.21875q-0.109375 -0.46875 -0.109375 -1.53125l0 -5.984375l1.640625 0l0 5.359375q0 1.28125 0.109375 1.734375q0.15625 0.640625 0.65625 1.015625q0.5 0.375 1.234375 0.375q0.734375 0 1.375 -0.375q0.65625 -0.390625 0.921875 -1.03125q0.265625 -0.65625 0.265625 -1.890625l0 -5.1875l1.640625 0l0 9.671875l-1.46875 0zm4.047592 0l0 -9.671875l1.46875 0l0 1.375q1.0625 -1.59375 3.078125 -1.59375q0.875 0 1.609375 0.3125q0.734375 0.3125 1.09375 0.828125q0.375 0.5 0.515625 1.203125q0.09375 0.453125 0.09375 1.59375l0 5.953125l-1.640625 0l0 -5.890625q0 -1.0 -0.203125 -1.484375q-0.1875 -0.5 -0.671875 -0.796875q-0.484375 -0.296875 -1.140625 -0.296875q-1.046875 0 -1.8125 0.671875q-0.75 0.65625 -0.75 2.515625l0 5.28125l-1.640625 0zm16.641342 0l0 -1.21875q-0.90625 1.4375 -2.703125 1.4375q-1.15625 0 -2.125 -0.640625q-0.96875 -0.640625 -1.5 -1.78125q-0.53125 -1.140625 -0.53125 -2.625q0 -1.453125 0.484375 -2.625q0.484375 -1.1875 1.4375 -1.8125q0.96875 -0.625 2.171875 -0.625q0.875 0 1.546875 0.375q0.6875 0.359375 1.109375 0.953125l0 -4.796875l1.640625 0l0 13.359375l-1.53125 0zm-5.171875 -4.828125q0 1.859375 0.78125 2.78125q0.78125 0.921875 1.84375 0.921875q1.078125 0 1.828125 -0.875q0.75 -0.890625 0.75 -2.6875q0 -1.984375 -0.765625 -2.90625q-0.765625 -0.9375 -1.890625 -0.9375q-1.078125 0 -1.8125 0.890625q-0.734375 0.890625 -0.734375 2.8125zm9.235092 4.828125l0 -13.359375l1.640625 0l0 13.359375l-1.640625 0zm10.816696 -3.109375l1.6875 0.203125q-0.40625 1.484375 -1.484375 2.3125q-1.078125 0.8125 -2.765625 0.8125q-2.125 0 -3.375 -1.296875q-1.234375 -1.3125 -1.234375 -3.671875q0 -2.453125 1.25 -3.796875q1.265625 -1.34375 3.265625 -1.34375q1.9375 0 3.15625 1.328125q1.234375 1.3125 1.234375 3.703125q0 0.15625 0 0.4375l-7.21875 0q0.09375 1.59375 0.90625 2.453125q0.8125 0.84375 2.015625 0.84375q0.90625 0 1.546875 -0.46875q0.640625 -0.484375 1.015625 -1.515625zm-5.390625 -2.65625l5.40625 0q-0.109375 -1.21875 -0.625 -1.828125q-0.78125 -0.953125 -2.03125 -0.953125q-1.125 0 -1.90625 0.765625q-0.765625 0.75 -0.84375 2.015625zm15.406967 5.765625l0 -1.21875q-0.90625 1.4375 -2.703125 1.4375q-1.15625 0 -2.125 -0.640625q-0.96875 -0.640625 -1.5 -1.78125q-0.53125 -1.140625 -0.53125 -2.625q0 -1.453125 0.484375 -2.625q0.484375 -1.1875 1.4375 -1.8125q0.96875 -0.625 2.171875 -0.625q0.875 0 1.546875 0.375q0.6875 0.359375 1.109375 0.953125l0 -4.796875l1.640625 0l0 13.359375l-1.53125 0zm-5.171875 -4.828125q0 1.859375 0.78125 2.78125q0.78125 0.921875 1.84375 0.921875q1.078125 0 1.828125 -0.875q0.75 -0.890625 0.75 -2.6875q0 -1.984375 -0.765625 -2.90625q-0.765625 -0.9375 -1.890625 -0.9375q-1.078125 0 -1.8125 0.890625q-0.734375 0.890625 -0.734375 2.8125z" fill-rule="nonzero"/><path fill="#000000" d="m56.931126 237.69427l-3.53125 -13.359375l1.8125 0l2.03125 8.765625q0.328125 1.375 0.5625 2.71875q0.5 -2.140625 0.59375 -2.46875l2.546875 -9.015625l2.125 0l1.9218788 6.765625q0.71875 2.515625 1.03125 4.71875q0.265625 -1.265625 0.671875 -2.890625l2.09375 -8.59375l1.78125 0l-3.671875 13.359375l-1.703125 0l-2.8125038 -10.171875q-0.359375 -1.28125 -0.421875 -1.5625q-0.203125 0.90625 -0.390625 1.5625l-2.828125 10.171875l-1.8125 0zm21.365177 -3.109375l1.6875 0.203125q-0.40625 1.484375 -1.484375 2.3125q-1.078125 0.8125 -2.765625 0.8125q-2.125 0 -3.375 -1.296875q-1.234375 -1.3125 -1.234375 -3.671875q0 -2.453125 1.25 -3.796875q1.265625 -1.34375 3.265625 -1.34375q1.9375 0 3.15625 1.328125q1.234375 1.3125 1.234375 3.703125q0 0.15625 0 0.4375l-7.21875 0q0.09375 1.59375 0.90625 2.453125q0.8125 0.84375 2.015625 0.84375q0.90625 0 1.546875 -0.46875q0.640625 -0.484375 1.015625 -1.515625zm-5.390625 -2.65625l5.40625 0q-0.109375 -1.21875 -0.625 -1.828125q-0.78125 -0.953125 -2.03125 -0.953125q-1.125 0 -1.90625 0.765625q-0.765625 0.75 -0.84375 2.015625zm10.641342 5.765625l-1.515625 0l0 -13.359375l1.640625 0l0 4.765625q1.046875 -1.296875 2.65625 -1.296875q0.890625 0 1.6875 0.359375q0.796875 0.359375 1.3125 1.015625q0.515625 0.640625 0.796875 1.5625q0.296875 0.921875 0.296875 1.96875q0 2.484375 -1.234375 3.84375q-1.21875 1.359375 -2.953125 1.359375q-1.703125 0 -2.6875 -1.4375l0 1.21875zm-0.015625 -4.90625q0 1.734375 0.484375 2.515625q0.765625 1.265625 2.09375 1.265625q1.078125 0 1.859375 -0.9375q0.78125 -0.9375 0.78125 -2.78125q0 -1.890625 -0.75 -2.796875q-0.75 -0.90625 -1.828125 -0.90625q-1.0625 0 -1.859375 0.9375q-0.78125 0.9375 -0.78125 2.703125zm8.235092 2.015625l1.625 -0.25q0.125 0.96875 0.75 1.5q0.625 0.515625 1.75 0.515625q1.125 0 1.671875 -0.453125q0.546875 -0.46875 0.546875 -1.09375q0 -0.546875 -0.484375 -0.875q-0.328125 -0.21875 -1.671875 -0.546875q-1.8125 -0.46875 -2.515625 -0.796875q-0.6875 -0.328125 -1.046875 -0.90625q-0.359375 -0.59375 -0.359375 -1.3125q0 -0.640625 0.296875 -1.1875q0.296875 -0.5625 0.8125 -0.921875q0.375 -0.28125 1.03125 -0.46875q0.671875 -0.203125 1.421875 -0.203125q1.140625 0 2.0 0.328125q0.859375 0.328125 1.265625 0.890625q0.421875 0.5625 0.578125 1.5l-1.609375 0.21875q-0.109375 -0.75 -0.640625 -1.171875q-0.515625 -0.421875 -1.46875 -0.421875q-1.140625 0 -1.625 0.375q-0.46875 0.375 -0.46875 0.875q0 0.3125 0.1875 0.578125q0.203125 0.265625 0.640625 0.4375q0.234375 0.09375 1.4375 0.421875q1.75 0.453125 2.4375 0.75q0.6875 0.296875 1.078125 0.859375q0.390625 0.5625 0.390625 1.40625q0 0.828125 -0.484375 1.546875q-0.46875 0.71875 -1.375 1.125q-0.90625 0.390625 -2.046875 0.390625q-1.875 0 -2.875 -0.78125q-0.984375 -0.78125 -1.25 -2.328125zm9.984375 -8.578125l0 -1.890625l1.640625 0l0 1.890625l-1.640625 0zm0 11.46875l0 -9.671875l1.640625 0l0 9.671875l-1.640625 0zm7.722946 -1.46875l0.234375 1.453125q-0.6875 0.140625 -1.234375 0.140625q-0.890625 0 -1.390625 -0.28125q-0.484375 -0.28125 -0.6875 -0.734375q-0.203125 -0.46875 -0.203125 -1.9375l0 -5.578125l-1.203125 0l0 -1.265625l1.203125 0l0 -2.390625l1.625 -0.984375l0 3.375l1.65625 0l0 1.265625l-1.65625 0l0 5.671875q0 0.6875 0.078125 0.890625q0.09375 0.203125 0.28125 0.328125q0.203125 0.109375 0.578125 0.109375q0.265625 0 0.71875 -0.0625zm8.230179 -1.640625l1.6875 0.203125q-0.40625 1.484375 -1.484375 2.3125q-1.078125 0.8125 -2.765625 0.8125q-2.125 0 -3.375 -1.296875q-1.234375 -1.3125 -1.234375 -3.671875q0 -2.453125 1.25 -3.796875q1.265625 -1.34375 3.265625 -1.34375q1.9375 0 3.15625 1.328125q1.234375 1.3125 1.234375 3.703125q0 0.15625 0 0.4375l-7.21875 0q0.09375 1.59375 0.90625 2.453125q0.8125 0.84375 2.015625 0.84375q0.90625 0 1.546875 -0.46875q0.640625 -0.484375 1.015625 -1.515625zm-5.390625 -2.65625l5.40625 0q-0.109375 -1.21875 -0.625 -1.828125q-0.78125 -0.953125 -2.03125 -0.953125q-1.125 0 -1.90625 0.765625q-0.765625 0.75 -0.84375 2.015625z" fill-rule="nonzero"/><path fill="#eeeeee" d="m146.64568 149.16536l91.464554 0l0 43.149597l-91.464554 0z" fill-rule="evenodd"/><path stroke="#595959" stroke-width="2.0" stroke-linejoin="round" stroke-linecap="butt" d="m146.64568 149.16536l91.464554 0l0 43.149597l-91.464554 0z" fill-rule="evenodd"/><path fill="#000000" d="m165.81316 177.66016l0 -13.359375l5.046875 0q1.328125 0 2.03125 0.125q0.96875 0.171875 1.640625 0.640625q0.671875 0.453125 1.078125 1.28125q0.40625 0.828125 0.40625 1.828125q0 1.703125 -1.09375 2.890625q-1.078125 1.171875 -3.921875 1.171875l-3.421875 0l0 5.421875l-1.765625 0zm1.765625 -7.0l3.453125 0q1.71875 0 2.4375 -0.640625q0.71875 -0.640625 0.71875 -1.796875q0 -0.84375 -0.421875 -1.4375q-0.421875 -0.59375 -1.125 -0.78125q-0.4375 -0.125 -1.640625 -0.125l-3.421875 0l0 4.78125zm17.099823 3.890625l1.6875 0.203125q-0.40625 1.484375 -1.484375 2.3125q-1.078125 0.8125 -2.765625 0.8125q-2.125 0 -3.375 -1.296875q-1.234375 -1.3125 -1.234375 -3.671875q0 -2.453125 1.25 -3.796875q1.265625 -1.34375 3.265625 -1.34375q1.9375 0 3.15625 1.328125q1.234375 1.3125 1.234375 3.703125q0 0.15625 0 0.4375l-7.21875 0q0.09375 1.59375 0.90625 2.453125q0.8125 0.84375 2.015625 0.84375q0.90625 0 1.546875 -0.46875q0.640625 -0.484375 1.015625 -1.515625zm-5.390625 -2.65625l5.40625 0q-0.109375 -1.21875 -0.625 -1.828125q-0.78125 -0.953125 -2.03125 -0.953125q-1.125 0 -1.90625 0.765625q-0.765625 0.75 -0.84375 2.015625zm15.766342 2.65625l1.6875 0.203125q-0.40625 1.484375 -1.484375 2.3125q-1.078125 0.8125 -2.765625 0.8125q-2.125 0 -3.375 -1.296875q-1.234375 -1.3125 -1.234375 -3.671875q0 -2.453125 1.25 -3.796875q1.265625 -1.34375 3.265625 -1.34375q1.9375 0 3.15625 1.328125q1.234375 1.3125 1.234375 3.703125q0 0.15625 0 0.4375l-7.21875 0q0.09375 1.59375 0.90625 2.453125q0.8125 0.84375 2.015625 0.84375q0.90625 0 1.546875 -0.46875q0.640625 -0.484375 1.015625 -1.515625zm-5.390625 -2.65625l5.40625 0q-0.109375 -1.21875 -0.625 -1.828125q-0.78125 -0.953125 -2.03125 -0.953125q-1.125 0 -1.90625 0.765625q-0.765625 0.75 -0.84375 2.015625zm9.125717 5.765625l0 -9.671875l1.46875 0l0 1.46875q0.5625 -1.03125 1.03125 -1.359375q0.484375 -0.328125 1.0625 -0.328125q0.828125 0 1.6875 0.53125l-0.5625 1.515625q-0.609375 -0.359375 -1.203125 -0.359375q-0.546875 0 -0.96875 0.328125q-0.421875 0.328125 -0.609375 0.890625q-0.28125 0.875 -0.28125 1.921875l0 5.0625l-1.625 0zm9.116028 0l5.125 -13.359375l1.90625 0l5.46875 13.359375l-2.015625 0l-1.546875 -4.046875l-5.59375 0l-1.46875 4.046875l-1.875 0zm3.859375 -5.484375l4.53125 0l-1.40625 -3.703125q-0.625 -1.6875 -0.9375 -2.765625q-0.265625 1.28125 -0.71875 2.546875l-1.46875 3.921875z" fill-rule="nonzero"/><path fill="#eeeeee" d="m146.64568 203.04987l91.464554 0l0 43.149612l-91.464554 0z" fill-rule="evenodd"/><path stroke="#595959" stroke-width="2.0" stroke-linejoin="round" stroke-linecap="butt" d="m146.64568 203.04987l91.464554 0l0 43.149612l-91.464554 0z" fill-rule="evenodd"/><path fill="#000000" d="m165.29817 231.54466l0 -13.359375l5.046875 0q1.328125 0 2.03125 0.125q0.96875 0.171875 1.640625 0.640625q0.671875 0.453125 1.078125 1.28125q0.40625 0.828125 0.40625 1.828125q0 1.703125 -1.09375 2.890625q-1.078125 1.171875 -3.921875 1.171875l-3.421875 0l0 5.421875l-1.765625 0zm1.765625 -7.0l3.453125 0q1.71875 0 2.4375 -0.640625q0.71875 -0.640625 0.71875 -1.796875q0 -0.84375 -0.421875 -1.4375q-0.421875 -0.59375 -1.125 -0.78125q-0.4375 -0.125 -1.640625 -0.125l-3.421875 0l0 4.78125zm17.099823 3.890625l1.6875 0.203125q-0.40625 1.484375 -1.484375 2.3125q-1.078125 0.8125 -2.765625 0.8125q-2.125 0 -3.375 -1.296875q-1.234375 -1.3125 -1.234375 -3.671875q0 -2.453125 1.25 -3.796875q1.265625 -1.34375 3.265625 -1.34375q1.9375 0 3.15625 1.328125q1.234375 1.3125 1.234375 3.703125q0 0.15625 0 0.4375l-7.21875 0q0.09375 1.59375 0.90625 2.453125q0.8125 0.84375 2.015625 0.84375q0.90625 0 1.546875 -0.46875q0.640625 -0.484375 1.015625 -1.515625zm-5.390625 -2.65625l5.40625 0q-0.109375 -1.21875 -0.625 -1.828125q-0.78125 -0.953125 -2.03125 -0.953125q-1.125 0 -1.90625 0.765625q-0.765625 0.75 -0.84375 2.015625zm15.766342 2.65625l1.6875 0.203125q-0.40625 1.484375 -1.484375 2.3125q-1.078125 0.8125 -2.765625 0.8125q-2.125 0 -3.375 -1.296875q-1.234375 -1.3125 -1.234375 -3.671875q0 -2.453125 1.25 -3.796875q1.265625 -1.34375 3.265625 -1.34375q1.9375 0 3.15625 1.328125q1.234375 1.3125 1.234375 3.703125q0 0.15625 0 0.4375l-7.21875 0q0.09375 1.59375 0.90625 2.453125q0.8125 0.84375 2.015625 0.84375q0.90625 0 1.546875 -0.46875q0.640625 -0.484375 1.015625 -1.515625zm-5.390625 -2.65625l5.40625 0q-0.109375 -1.21875 -0.625 -1.828125q-0.78125 -0.953125 -2.03125 -0.953125q-1.125 0 -1.90625 0.765625q-0.765625 0.75 -0.84375 2.015625zm9.125717 5.765625l0 -9.671875l1.46875 0l0 1.46875q0.5625 -1.03125 1.03125 -1.359375q0.484375 -0.328125 1.0625 -0.328125q0.828125 0 1.6875 0.53125l-0.5625 1.515625q-0.609375 -0.359375 -1.203125 -0.359375q-0.546875 0 -0.96875 0.328125q-0.421875 0.328125 -0.609375 0.890625q-0.28125 0.875 -0.28125 1.921875l0 5.0625l-1.625 0zm11.536606 0l0 -13.359375l5.015625 0q1.53125 0 2.453125 0.40625q0.921875 0.40625 1.4375 1.25q0.53125 0.84375 0.53125 1.765625q0 0.859375 -0.46875 1.625q-0.453125 0.75 -1.390625 1.203125q1.203125 0.359375 1.859375 1.21875q0.65625 0.859375 0.65625 2.015625q0 0.9375 -0.40625 1.75q-0.390625 0.796875 -0.984375 1.234375q-0.578125 0.4375 -1.453125 0.671875q-0.875 0.21875 -2.15625 0.21875l-5.09375 0zm1.78125 -7.75l2.875 0q1.1875 0 1.6875 -0.140625q0.671875 -0.203125 1.015625 -0.671875q0.34375 -0.46875 0.34375 -1.171875q0 -0.65625 -0.328125 -1.15625q-0.3125 -0.515625 -0.90625 -0.703125q-0.59375 -0.1875 -2.03125 -0.1875l-2.65625 0l0 4.03125zm0 6.171875l3.3125 0q0.859375 0 1.203125 -0.0625q0.609375 -0.109375 1.015625 -0.359375q0.421875 -0.265625 0.6875 -0.75q0.265625 -0.484375 0.265625 -1.125q0 -0.75 -0.390625 -1.296875q-0.375 -0.546875 -1.0625 -0.765625q-0.671875 -0.234375 -1.953125 -0.234375l-3.078125 0l0 4.59375z" fill-rule="nonzero"/><path fill="#b6d7a8" d="m32.96063 35.687893l0 0c0 -6.297043 5.104763 -11.401804 11.401806 -11.401804l84.031044 0c3.023941 0 5.9240265 1.2012577 8.062286 3.3395119c2.13826 2.1382523 3.339508 5.0383434 3.339508 8.062292l0 45.60584c0 6.297043 -5.1047516 11.40181 -11.401794 11.40181l-84.031044 0c-6.297043 0 -11.401806 -5.104767 -11.401806 -11.40181z" fill-rule="evenodd"/><path stroke="#595959" stroke-width="2.0" stroke-linejoin="round" stroke-linecap="butt" d="m32.96063 35.687893l0 0c0 -6.297043 5.104763 -11.401804 11.401806 -11.401804l84.031044 0c3.023941 0 5.9240265 1.2012577 8.062286 3.3395119c2.13826 2.1382523 3.339508 5.0383434 3.339508 8.062292l0 45.60584c0 6.297043 -5.1047516 11.40181 -11.401794 11.40181l-84.031044 0c-6.297043 0 -11.401806 -5.104767 -11.401806 -11.40181z" fill-rule="evenodd"/><path fill="#000000" d="m72.73401 54.410812l0 -5.65625l-5.15625 -7.703125l2.15625 0l2.640625 4.03125q0.71875 1.125 1.34375 2.265625q0.609375 -1.046875 1.46875 -2.359375l2.578125 -3.9375l2.0625 0l-5.328125 7.703125l0 5.65625l-1.765625 0zm6.1519012 -4.84375q0 -2.6875 1.484375 -3.96875q1.25 -1.078125 3.046875 -1.078125q2.0 0 3.265625 1.3125q1.265625 1.296875 1.265625 3.609375q0 1.859375 -0.5625 2.9375q-0.5625 1.0625 -1.640625 1.65625q-1.0625 0.59375 -2.328125 0.59375q-2.03125 0 -3.28125 -1.296875q-1.25 -1.3125 -1.25 -3.765625zm1.6875 0q0 1.859375 0.796875 2.796875q0.8125 0.921875 2.046875 0.921875q1.21875 0 2.03125 -0.921875q0.8125 -0.9375 0.8125 -2.84375q0 -1.796875 -0.8125 -2.71875q-0.8125 -0.921875 -2.03125 -0.921875q-1.234375 0 -2.046875 0.921875q-0.796875 0.90625 -0.796875 2.765625zm15.625717 4.84375l0 -1.421875q-1.125 1.640625 -3.0625 1.640625q-0.859375 0 -1.609375 -0.328125q-0.734375 -0.328125 -1.09375 -0.828125q-0.359375 -0.5 -0.5 -1.21875q-0.109375 -0.46875 -0.109375 -1.53125l0 -5.984375l1.640625 0l0 5.359375q0 1.28125 0.109375 1.734375q0.15625 0.640625 0.65625 1.015625q0.5 0.375 1.234375 0.375q0.734375 0 1.375 -0.375q0.65625 -0.390625 0.921875 -1.03125q0.265625 -0.65625 0.265625 -1.890625l0 -5.1875l1.640625 0l0 9.671875l-1.46875 0zm4.031967 0l0 -9.671875l1.46875 0l0 1.46875q0.5625 -1.03125 1.03125 -1.359375q0.484375 -0.328125 1.0625 -0.328125q0.828125 0 1.6875 0.53125l-0.5625 1.515625q-0.609375 -0.359375 -1.203125 -0.359375q-0.546875 0 -0.96875 0.328125q-0.421875 0.328125 -0.609375 0.890625q-0.28125 0.875 -0.28125 1.921875l0 5.0625l-1.625 0z" fill-rule="nonzero"/><path fill="#000000" d="m52.45797 76.41081l-3.53125 -13.359375l1.8125 0l2.03125 8.765625q0.328125 1.375 0.5625 2.71875q0.5 -2.140625 0.59375 -2.46875l2.546875 -9.015625l2.125 0l1.921875 6.765625q0.71875 2.515625 1.03125 4.71875q0.265625 -1.265625 0.671875 -2.890625l2.09375 -8.59375l1.78125 0l-3.671875 13.359375l-1.703125 0l-2.8125 -10.171875q-0.359375 -1.28125 -0.421875 -1.5625q-0.203125 0.90625 -0.390625 1.5625l-2.828125 10.171875l-1.8125 0zm21.365173 -3.109375l1.6875 0.203125q-0.40625 1.484375 -1.484375 2.3125q-1.078125 0.8125 -2.765625 0.8125q-2.125 0 -3.375 -1.296875q-1.234375 -1.3125 -1.234375 -3.671875q0 -2.453125 1.25 -3.796875q1.265625 -1.34375 3.265625 -1.34375q1.9375 0 3.15625 1.328125q1.234375 1.3125 1.234375 3.703125q0 0.15625 0 0.4375l-7.21875 0q0.09375 1.59375 0.90625 2.453125q0.8125 0.84375 2.015625 0.84375q0.90625 0 1.546875 -0.46875q0.640625 -0.484375 1.015625 -1.515625zm-5.390625 -2.65625l5.40625 0q-0.109375 -1.21875 -0.625 -1.828125q-0.78125 -0.953125 -2.03125 -0.953125q-1.125 0 -1.90625 0.765625q-0.765625 0.75 -0.84375 2.015625zm10.641342 5.765625l-1.515625 0l0 -13.359375l1.640625 0l0 4.765625q1.046875 -1.296875 2.65625 -1.296875q0.890625 0 1.6875 0.359375q0.796875 0.359375 1.3125 1.015625q0.515625 0.640625 0.796875 1.5625q0.296875 0.921875 0.296875 1.96875q0 2.484375 -1.234375 3.84375q-1.21875 1.359375 -2.953125 1.359375q-1.703125 0 -2.6875 -1.4375l0 1.21875zm-0.015625 -4.90625q0 1.734375 0.484375 2.515625q0.765625 1.265625 2.09375 1.265625q1.078125 0 1.859375 -0.9375q0.78125 -0.9375 0.78125 -2.78125q0 -1.890625 -0.75 -2.796875q-0.75 -0.90625 -1.828125 -0.90625q-1.0625 0 -1.859375 0.9375q-0.78125 0.9375 -0.78125 2.703125zm11.779068 4.90625l5.125 -13.359375l1.90625 0l5.46875 13.359375l-2.015625 0l-1.546875 -4.046875l-5.59375 0l-1.46875 4.046875l-1.875 0zm3.859375 -5.484375l4.53125 0l-1.40625 -3.703125q-0.625 -1.6875 -0.9375 -2.765625q-0.265625 1.28125 -0.71875 2.546875l-1.46875 3.921875zm9.849823 9.1875l0 -13.375l1.484375 0l0 1.25q0.53125 -0.734375 1.1875 -1.09375q0.671875 -0.375 1.625 -0.375q1.234375 0 2.171875 0.640625q0.953125 0.625 1.4375 1.796875q0.484375 1.15625 0.484375 2.546875q0 1.484375 -0.53125 2.671875q-0.53125 1.1875 -1.546875 1.828125q-1.015625 0.625 -2.140625 0.625q-0.8125 0 -1.46875 -0.34375q-0.65625 -0.34375 -1.0625 -0.875l0 4.703125l-1.640625 0zm1.484375 -8.484375q0 1.859375 0.75 2.765625q0.765625 0.890625 1.828125 0.890625q1.09375 0 1.875 -0.921875q0.78125 -0.9375 0.78125 -2.875q0 -1.84375 -0.765625 -2.765625q-0.75 -0.921875 -1.8125 -0.921875q-1.046875 0 -1.859375 0.984375q-0.796875 0.96875 -0.796875 2.84375zm8.891342 8.484375l0 -13.375l1.484375 0l0 1.25q0.53125 -0.734375 1.1875 -1.09375q0.671875 -0.375 1.625 -0.375q1.234375 0 2.171875 0.640625q0.953125 0.625 1.4375 1.796875q0.484375 1.15625 0.484375 2.546875q0 1.484375 -0.53125 2.671875q-0.53125 1.1875 -1.546875 1.828125q-1.015625 0.625 -2.140625 0.625q-0.8125 0 -1.46875 -0.34375q-0.65625 -0.34375 -1.0625 -0.875l0 4.703125l-1.640625 0zm1.484375 -8.484375q0 1.859375 0.75 2.765625q0.765625 0.890625 1.828125 0.890625q1.09375 0 1.875 -0.921875q0.78125 -0.9375 0.78125 -2.875q0 -1.84375 -0.765625 -2.765625q-0.75 -0.921875 -1.8125 -0.921875q-1.046875 0 -1.859375 0.984375q-0.796875 0.96875 -0.796875 2.84375z" fill-rule="nonzero"/><path fill="#b6d7a8" d="m32.96063 319.54877l0 0c0 -6.2970276 5.104763 -11.401794 11.401806 -11.401794l84.031044 0c3.023941 0 5.9240265 1.2012634 8.062286 3.339508c2.13826 2.1382446 3.339508 5.03833 3.339508 8.062286l0 45.605835c0 6.297058 -5.1047516 11.401825 -11.401794 11.401825l-84.031044 0c-6.297043 0 -11.401806 -5.104767 -11.401806 -11.401825z" fill-rule="evenodd"/><path stroke="#595959" stroke-width="2.0" stroke-linejoin="round" stroke-linecap="butt" d="m32.96063 319.54877l0 0c0 -6.2970276 5.104763 -11.401794 11.401806 -11.401794l84.031044 0c3.023941 0 5.9240265 1.2012634 8.062286 3.339508c2.13826 2.1382446 3.339508 5.03833 3.339508 8.062286l0 45.605835c0 6.297058 -5.1047516 11.401825 -11.401794 11.401825l-84.031044 0c-6.297043 0 -11.401806 -5.104767 -11.401806 -11.401825z" fill-rule="evenodd"/><path fill="#000000" d="m72.73401 338.2717l0 -5.65625l-5.15625 -7.703125l2.15625 0l2.640625 4.03125q0.71875 1.125 1.34375 2.265625q0.609375 -1.046875 1.46875 -2.359375l2.578125 -3.9375l2.0625 0l-5.328125 7.703125l0 5.65625l-1.765625 0zm6.1519012 -4.84375q0 -2.6875 1.484375 -3.96875q1.25 -1.078125 3.046875 -1.078125q2.0 0 3.265625 1.3125q1.265625 1.296875 1.265625 3.609375q0 1.859375 -0.5625 2.9375q-0.5625 1.0625 -1.640625 1.65625q-1.0625 0.59375 -2.328125 0.59375q-2.03125 0 -3.28125 -1.296875q-1.25 -1.3125 -1.25 -3.765625zm1.6875 0q0 1.859375 0.796875 2.796875q0.8125 0.921875 2.046875 0.921875q1.21875 0 2.03125 -0.921875q0.8125 -0.9375 0.8125 -2.84375q0 -1.796875 -0.8125 -2.71875q-0.8125 -0.921875 -2.03125 -0.921875q-1.234375 0 -2.046875 0.921875q-0.796875 0.90625 -0.796875 2.765625zm15.625717 4.84375l0 -1.421875q-1.125 1.640625 -3.0625 1.640625q-0.859375 0 -1.609375 -0.328125q-0.734375 -0.328125 -1.09375 -0.828125q-0.359375 -0.5 -0.5 -1.21875q-0.109375 -0.46875 -0.109375 -1.53125l0 -5.984375l1.640625 0l0 5.359375q0 1.28125 0.109375 1.734375q0.15625 0.640625 0.65625 1.015625q0.5 0.375 1.234375 0.375q0.734375 0 1.375 -0.375q0.65625 -0.390625 0.921875 -1.03125q0.265625 -0.65625 0.265625 -1.890625l0 -5.1875l1.640625 0l0 9.671875l-1.46875 0zm4.031967 0l0 -9.671875l1.46875 0l0 1.46875q0.5625 -1.03125 1.03125 -1.359375q0.484375 -0.328125 1.0625 -0.328125q0.828125 0 1.6875 0.53125l-0.5625 1.515625q-0.609375 -0.359375 -1.203125 -0.359375q-0.546875 0 -0.96875 0.328125q-0.421875 0.328125 -0.609375 0.890625q-0.28125 0.875 -0.28125 1.921875l0 5.0625l-1.625 0z" fill-rule="nonzero"/><path fill="#000000" d="m52.45797 360.2717l-3.53125 -13.359375l1.8125 0l2.03125 8.765625q0.328125 1.375 0.5625 2.71875q0.5 -2.140625 0.59375 -2.46875l2.546875 -9.015625l2.125 0l1.921875 6.765625q0.71875 2.515625 1.03125 4.71875q0.265625 -1.265625 0.671875 -2.890625l2.09375 -8.59375l1.78125 0l-3.671875 13.359375l-1.703125 0l-2.8125 -10.171875q-0.359375 -1.28125 -0.421875 -1.5625q-0.203125 0.90625 -0.390625 1.5625l-2.828125 10.171875l-1.8125 0zm21.365173 -3.109375l1.6875 0.203125q-0.40625 1.484375 -1.484375 2.3125q-1.078125 0.8125 -2.765625 0.8125q-2.125 0 -3.375 -1.296875q-1.234375 -1.3125 -1.234375 -3.671875q0 -2.453125 1.25 -3.796875q1.265625 -1.34375 3.265625 -1.34375q1.9375 0 3.15625 1.328125q1.234375 1.3125 1.234375 3.703125q0 0.15625 0 0.4375l-7.21875 0q0.09375 1.59375 0.90625 2.453125q0.8125 0.84375 2.015625 0.84375q0.90625 0 1.546875 -0.46875q0.640625 -0.484375 1.015625 -1.515625zm-5.390625 -2.65625l5.40625 0q-0.109375 -1.21875 -0.625 -1.828125q-0.78125 -0.953125 -2.03125 -0.953125q-1.125 0 -1.90625 0.765625q-0.765625 0.75 -0.84375 2.015625zm10.641342 5.765625l-1.515625 0l0 -13.359375l1.640625 0l0 4.765625q1.046875 -1.296875 2.65625 -1.296875q0.890625 0 1.6875 0.359375q0.796875 0.359375 1.3125 1.015625q0.515625 0.640625 0.796875 1.5625q0.296875 0.921875 0.296875 1.96875q0 2.484375 -1.234375 3.84375q-1.21875 1.359375 -2.953125 1.359375q-1.703125 0 -2.6875 -1.4375l0 1.21875zm-0.015625 -4.90625q0 1.734375 0.484375 2.515625q0.765625 1.265625 2.09375 1.265625q1.078125 0 1.859375 -0.9375q0.78125 -0.9375 0.78125 -2.78125q0 -1.890625 -0.75 -2.796875q-0.75 -0.90625 -1.828125 -0.90625q-1.0625 0 -1.859375 0.9375q-0.78125 0.9375 -0.78125 2.703125zm11.779068 4.90625l5.125 -13.359375l1.90625 0l5.46875 13.359375l-2.015625 0l-1.546875 -4.046875l-5.59375 0l-1.46875 4.046875l-1.875 0zm3.859375 -5.484375l4.53125 0l-1.40625 -3.703125q-0.625 -1.6875 -0.9375 -2.765625q-0.265625 1.28125 -0.71875 2.546875l-1.46875 3.921875zm9.849823 9.1875l0 -13.375l1.484375 0l0 1.25q0.53125 -0.734375 1.1875 -1.09375q0.671875 -0.375 1.625 -0.375q1.234375 0 2.171875 0.640625q0.953125 0.625 1.4375 1.796875q0.484375 1.15625 0.484375 2.546875q0 1.484375 -0.53125 2.671875q-0.53125 1.1875 -1.546875 1.828125q-1.015625 0.625 -2.140625 0.625q-0.8125 0 -1.46875 -0.34375q-0.65625 -0.34375 -1.0625 -0.875l0 4.703125l-1.640625 0zm1.484375 -8.484375q0 1.859375 0.75 2.765625q0.765625 0.890625 1.828125 0.890625q1.09375 0 1.875 -0.921875q0.78125 -0.9375 0.78125 -2.875q0 -1.84375 -0.765625 -2.765625q-0.75 -0.921875 -1.8125 -0.921875q-1.046875 0 -1.859375 0.984375q-0.796875 0.96875 -0.796875 2.84375zm8.891342 8.484375l0 -13.375l1.484375 0l0 1.25q0.53125 -0.734375 1.1875 -1.09375q0.671875 -0.375 1.625 -0.375q1.234375 0 2.171875 0.640625q0.953125 0.625 1.4375 1.796875q0.484375 1.15625 0.484375 2.546875q0 1.484375 -0.53125 2.671875q-0.53125 1.1875 -1.546875 1.828125q-1.015625 0.625 -2.140625 0.625q-0.8125 0 -1.46875 -0.34375q-0.65625 -0.34375 -1.0625 -0.875l0 4.703125l-1.640625 0zm1.484375 -8.484375q0 1.859375 0.75 2.765625q0.765625 0.890625 1.828125 0.890625q1.09375 0 1.875 -0.921875q0.78125 -0.9375 0.78125 -2.875q0 -1.84375 -0.765625 -2.765625q-0.75 -0.921875 -1.8125 -0.921875q-1.046875 0 -1.859375 0.984375q-0.796875 0.96875 -0.796875 2.84375z" fill-rule="nonzero"/><path fill="#000000" fill-opacity="0.0" d="m86.69292 149.33333l-0.3149643 -56.629913" fill-rule="evenodd"/><path stroke="#000000" stroke-width="3.0" stroke-linejoin="round" stroke-linecap="butt" d="m86.69292 149.33333l-0.21485901 -38.630196" fill-rule="evenodd"/><path fill="#000000" stroke="#000000" stroke-width="3.0" stroke-linecap="butt" d="m91.43318 110.675575l-5.030838 -13.586525l-4.879402 13.64164z" fill-rule="evenodd"/><path fill="#000000" fill-opacity="0.0" d="m86.69292 246.21523l-0.3149643 61.92125" fill-rule="evenodd"/><path stroke="#000000" stroke-width="3.0" stroke-linejoin="round" stroke-linecap="butt" d="m86.69292 246.21523l-0.22341156 43.921494" fill-rule="evenodd"/><path fill="#000000" stroke="#000000" stroke-width="3.0" stroke-linecap="butt" d="m81.51437 290.1115l4.885887 13.639313l5.0243835 -13.588898z" fill-rule="evenodd"/><path fill="#eeeeee" d="m598.96063 148.41208l91.46454 0l0 96.88188l-91.46454 0z" fill-rule="evenodd"/><path stroke="#595959" stroke-width="2.0" stroke-linejoin="round" stroke-linecap="butt" d="m598.96063 148.41208l91.46454 0l0 96.88188l-91.46454 0z" fill-rule="evenodd"/><path fill="#000000" d="m631.04895 170.77301l0 -5.65625l-5.15625 -7.703125l2.15625 0l2.640625 4.03125q0.71875 1.125 1.34375 2.265625q0.609375 -1.046875 1.46875 -2.359375l2.578125 -3.9375l2.0625 0l-5.328125 7.703125l0 5.65625l-1.765625 0zm6.1519165 -4.84375q0 -2.6875 1.484375 -3.96875q1.25 -1.078125 3.046875 -1.078125q2.0 0 3.265625 1.3125q1.265625 1.296875 1.265625 3.609375q0 1.859375 -0.5625 2.9375q-0.5625 1.0625 -1.640625 1.65625q-1.0625 0.59375 -2.328125 0.59375q-2.03125 0 -3.28125 -1.296875q-1.25 -1.3125 -1.25 -3.765625zm1.6875 0q0 1.859375 0.796875 2.796875q0.8125 0.921875 2.046875 0.921875q1.21875 0 2.03125 -0.921875q0.8125 -0.9375 0.8125 -2.84375q0 -1.796875 -0.8125 -2.71875q-0.8125 -0.921875 -2.03125 -0.921875q-1.234375 0 -2.046875 0.921875q-0.796875 0.90625 -0.796875 2.765625zm15.625732 4.84375l0 -1.421875q-1.125 1.640625 -3.0625 1.640625q-0.859375 0 -1.609375 -0.328125q-0.734375 -0.328125 -1.09375 -0.828125q-0.359375 -0.5 -0.5 -1.21875q-0.109375 -0.46875 -0.109375 -1.53125l0 -5.984375l1.640625 0l0 5.359375q0 1.28125 0.109375 1.734375q0.15625 0.640625 0.65625 1.015625q0.5 0.375 1.234375 0.375q0.734375 0 1.375 -0.375q0.65625 -0.390625 0.921875 -1.03125q0.265625 -0.65625 0.265625 -1.890625l0 -5.1875l1.640625 0l0 9.671875l-1.46875 0zm4.0319824 0l0 -9.671875l1.46875 0l0 1.46875q0.5625 -1.03125 1.03125 -1.359375q0.484375 -0.328125 1.0625 -0.328125q0.828125 0 1.6875 0.53125l-0.5625 1.515625q-0.609375 -0.359375 -1.203125 -0.359375q-0.546875 0 -0.96875 0.328125q-0.421875 0.328125 -0.609375 0.890625q-0.28125 0.875 -0.28125 1.921875l0 5.0625l-1.625 0z" fill-rule="nonzero"/><path fill="#000000" d="m621.4963 192.77301l5.125 -13.359375l1.90625 0l5.46875 13.359375l-2.015625 0l-1.546875 -4.046875l-5.59375 0l-1.46875 4.046875l-1.875 0zm3.859375 -5.484375l4.53125 0l-1.40625 -3.703125q-0.625 -1.6875 -0.9375 -2.765625q-0.265625 1.28125 -0.71875 2.546875l-1.46875 3.921875zm9.8498535 9.1875l0 -13.375l1.484375 0l0 1.25q0.53125 -0.734375 1.1875 -1.09375q0.671875 -0.375 1.625 -0.375q1.234375 0 2.171875 0.640625q0.953125 0.625 1.4375 1.796875q0.484375 1.15625 0.484375 2.546875q0 1.484375 -0.53125 2.671875q-0.53125 1.1875 -1.546875 1.828125q-1.015625 0.625 -2.140625 0.625q-0.8125 0 -1.46875 -0.34375q-0.65625 -0.34375 -1.0625 -0.875l0 4.703125l-1.640625 0zm1.484375 -8.484375q0 1.859375 0.75 2.765625q0.765625 0.890625 1.828125 0.890625q1.09375 0 1.875 -0.921875q0.78125 -0.9375 0.78125 -2.875q0 -1.84375 -0.765625 -2.765625q-0.75 -0.921875 -1.8125 -0.921875q-1.046875 0 -1.859375 0.984375q-0.796875 0.96875 -0.796875 2.84375zm8.891357 8.484375l0 -13.375l1.484375 0l0 1.25q0.53125 -0.734375 1.1875 -1.09375q0.671875 -0.375 1.625 -0.375q1.234375 0 2.171875 0.640625q0.953125 0.625 1.4375 1.796875q0.484375 1.15625 0.484375 2.546875q0 1.484375 -0.53125 2.671875q-0.53125 1.1875 -1.546875 1.828125q-1.015625 0.625 -2.140625 0.625q-0.8125 0 -1.46875 -0.34375q-0.65625 -0.34375 -1.0625 -0.875l0 4.703125l-1.640625 0zm1.484375 -8.484375q0 1.859375 0.75 2.765625q0.765625 0.890625 1.828125 0.890625q1.09375 0 1.875 -0.921875q0.78125 -0.9375 0.78125 -2.875q0 -1.84375 -0.765625 -2.765625q-0.75 -0.921875 -1.8125 -0.921875q-1.046875 0 -1.859375 0.984375q-0.796875 0.96875 -0.796875 2.84375zm8.781921 -6.8125l0 -1.890625l1.765625 0l0 1.5q0 1.21875 -0.28125 1.75q-0.390625 0.75 -1.21875 1.109375l-0.40625 -0.640625q0.484375 -0.203125 0.71875 -0.625q0.25 -0.4375 0.28125 -1.203125l-0.859375 0zm3.2607422 8.703125l1.625 -0.25q0.125 0.96875 0.75 1.5q0.625 0.515625 1.75 0.515625q1.125 0 1.671875 -0.453125q0.546875 -0.46875 0.546875 -1.09375q0 -0.546875 -0.484375 -0.875q-0.328125 -0.21875 -1.671875 -0.546875q-1.8125 -0.46875 -2.515625 -0.796875q-0.6875 -0.328125 -1.046875 -0.90625q-0.359375 -0.59375 -0.359375 -1.3125q0 -0.640625 0.296875 -1.1875q0.296875 -0.5625 0.8125 -0.921875q0.375 -0.28125 1.03125 -0.46875q0.671875 -0.203125 1.421875 -0.203125q1.140625 0 2.0 0.328125q0.859375 0.328125 1.265625 0.890625q0.421875 0.5625 0.578125 1.5l-1.609375 0.21875q-0.109375 -0.75 -0.640625 -1.171875q-0.515625 -0.421875 -1.46875 -0.421875q-1.140625 0 -1.625 0.375q-0.46875 0.375 -0.46875 0.875q0 0.3125 0.1875 0.578125q0.203125 0.265625 0.640625 0.4375q0.234375 0.09375 1.4375 0.421875q1.75 0.453125 2.4375 0.75q0.6875 0.296875 1.078125 0.859375q0.390625 0.5625 0.390625 1.40625q0 0.828125 -0.484375 1.546875q-0.46875 0.71875 -1.375 1.125q-0.90625 0.390625 -2.046875 0.390625q-1.875 0 -2.875 -0.78125q-0.984375 -0.78125 -1.25 -2.328125z" fill-rule="nonzero"/><path fill="#000000" d="m611.8188 214.77303l0 -13.359375l5.015625 0q1.53125 0 2.453125 0.40625q0.921875 0.40625 1.4375 1.25q0.53125 0.84375 0.53125 1.765625q0 0.859375 -0.46875 1.625q-0.453125 0.75 -1.390625 1.203125q1.203125 0.359375 1.859375 1.21875q0.65625 0.859375 0.65625 2.015625q0 0.9375 -0.40625 1.75q-0.390625 0.796875 -0.984375 1.234375q-0.578125 0.4375 -1.453125 0.671875q-0.875 0.21875 -2.15625 0.21875l-5.09375 0zm1.78125 -7.75l2.875 0q1.1875 0 1.6875 -0.140625q0.671875 -0.203125 1.015625 -0.671875q0.34375 -0.46875 0.34375 -1.171875q0 -0.65625 -0.328125 -1.15625q-0.3125 -0.515625 -0.90625 -0.703125q-0.59375 -0.1875 -2.03125 -0.1875l-2.65625 0l0 4.03125zm0 6.171875l3.3125 0q0.859375 0 1.203125 -0.0625q0.609375 -0.109375 1.015625 -0.359375q0.421875 -0.265625 0.6875 -0.75q0.265625 -0.484375 0.265625 -1.125q0 -0.75 -0.390625 -1.296875q-0.375 -0.546875 -1.0625 -0.765625q-0.671875 -0.234375 -1.953125 -0.234375l-3.078125 0l0 4.59375zm16.865479 1.578125l0 -1.421875q-1.125 1.640625 -3.0625 1.640625q-0.859375 0 -1.609375 -0.328125q-0.734375 -0.328125 -1.09375 -0.828125q-0.359375 -0.5 -0.5 -1.21875q-0.109375 -0.46875 -0.109375 -1.53125l0 -5.984375l1.640625 0l0 5.359375q0 1.28125 0.109375 1.734375q0.15625 0.640625 0.65625 1.015625q0.5 0.375 1.234375 0.375q0.734375 0 1.375 -0.375q0.65625 -0.390625 0.921875 -1.03125q0.265625 -0.65625 0.265625 -1.890625l0 -5.1875l1.640625 0l0 9.671875l-1.46875 0zm4.0475464 0l0 -9.671875l1.46875 0l0 1.375q1.0625 -1.59375 3.078125 -1.59375q0.875 0 1.609375 0.3125q0.734375 0.3125 1.09375 0.828125q0.375 0.5 0.515625 1.203125q0.09375 0.453125 0.09375 1.59375l0 5.953125l-1.640625 0l0 -5.890625q0 -1.0 -0.203125 -1.484375q-0.1875 -0.5 -0.671875 -0.796875q-0.484375 -0.296875 -1.140625 -0.296875q-1.046875 0 -1.8125 0.671875q-0.75 0.65625 -0.75 2.515625l0 5.28125l-1.640625 0zm16.641357 0l0 -1.21875q-0.90625 1.4375 -2.703125 1.4375q-1.15625 0 -2.125 -0.640625q-0.96875 -0.640625 -1.5 -1.78125q-0.53125 -1.140625 -0.53125 -2.625q0 -1.453125 0.484375 -2.625q0.484375 -1.1875 1.4375 -1.8125q0.96875 -0.625 2.171875 -0.625q0.875 0 1.546875 0.375q0.6875 0.359375 1.109375 0.953125l0 -4.796875l1.640625 0l0 13.359375l-1.53125 0zm-5.171875 -4.828125q0 1.859375 0.78125 2.78125q0.78125 0.921875 1.84375 0.921875q1.078125 0 1.828125 -0.875q0.75 -0.890625 0.75 -2.6875q0 -1.984375 -0.765625 -2.90625q-0.765625 -0.9375 -1.890625 -0.9375q-1.078125 0 -1.8125 0.890625q-0.734375 0.890625 -0.734375 2.8125zm9.235107 4.828125l0 -13.359375l1.640625 0l0 13.359375l-1.640625 0zm10.816711 -3.109375l1.6875 0.203125q-0.40625 1.484375 -1.484375 2.3125q-1.078125 0.8125 -2.765625 0.8125q-2.125 0 -3.375 -1.296875q-1.234375 -1.3125 -1.234375 -3.671875q0 -2.453125 1.25 -3.796875q1.265625 -1.34375 3.265625 -1.34375q1.9375 0 3.15625 1.328125q1.234375 1.3125 1.234375 3.703125q0 0.15625 0 0.4375l-7.21875 0q0.09375 1.59375 0.90625 2.453125q0.8125 0.84375 2.015625 0.84375q0.90625 0 1.546875 -0.46875q0.640625 -0.484375 1.015625 -1.515625zm-5.390625 -2.65625l5.40625 0q-0.109375 -1.21875 -0.625 -1.828125q-0.78125 -0.953125 -2.03125 -0.953125q-1.125 0 -1.90625 0.765625q-0.765625 0.75 -0.84375 2.015625zm15.406921 5.765625l0 -1.21875q-0.90625 1.4375 -2.703125 1.4375q-1.15625 0 -2.125 -0.640625q-0.96875 -0.640625 -1.5 -1.78125q-0.53125 -1.140625 -0.53125 -2.625q0 -1.453125 0.484375 -2.625q0.484375 -1.1875 1.4375 -1.8125q0.96875 -0.625 2.171875 -0.625q0.875 0 1.546875 0.375q0.6875 0.359375 1.109375 0.953125l0 -4.796875l1.640625 0l0 13.359375l-1.53125 0zm-5.171875 -4.828125q0 1.859375 0.78125 2.78125q0.78125 0.921875 1.84375 0.921875q1.078125 0 1.828125 -0.875q0.75 -0.890625 0.75 -2.6875q0 -1.984375 -0.765625 -2.90625q-0.765625 -0.9375 -1.890625 -0.9375q-1.078125 0 -1.8125 0.890625q-0.734375 0.890625 -0.734375 2.8125z" fill-rule="nonzero"/><path fill="#000000" d="m614.93115 236.77303l-3.53125 -13.359375l1.8125 0l2.03125 8.765625q0.328125 1.375 0.5625 2.71875q0.5 -2.140625 0.59375 -2.46875l2.546875 -9.015625l2.125 0l1.921875 6.765625q0.71875 2.515625 1.03125 4.71875q0.265625 -1.265625 0.671875 -2.890625l2.09375 -8.59375l1.78125 0l-3.671875 13.359375l-1.703125 0l-2.8125 -10.171875q-0.359375 -1.28125 -0.421875 -1.5625q-0.203125 0.90625 -0.390625 1.5625l-2.828125 10.171875l-1.8125 0zm21.365173 -3.109375l1.6875 0.203125q-0.40625 1.484375 -1.484375 2.3125q-1.078125 0.8125 -2.765625 0.8125q-2.125 0 -3.375 -1.296875q-1.234375 -1.3125 -1.234375 -3.671875q0 -2.453125 1.25 -3.796875q1.265625 -1.34375 3.265625 -1.34375q1.9375 0 3.15625 1.328125q1.234375 1.3125 1.234375 3.703125q0 0.15625 0 0.4375l-7.21875 0q0.09375 1.59375 0.90625 2.453125q0.8125 0.84375 2.015625 0.84375q0.90625 0 1.546875 -0.46875q0.640625 -0.484375 1.015625 -1.515625zm-5.390625 -2.65625l5.40625 0q-0.109375 -1.21875 -0.625 -1.828125q-0.78125 -0.953125 -2.03125 -0.953125q-1.125 0 -1.90625 0.765625q-0.765625 0.75 -0.84375 2.015625zm10.641296 5.765625l-1.515625 0l0 -13.359375l1.640625 0l0 4.765625q1.046875 -1.296875 2.65625 -1.296875q0.890625 0 1.6875 0.359375q0.796875 0.359375 1.3125 1.015625q0.515625 0.640625 0.796875 1.5625q0.296875 0.921875 0.296875 1.96875q0 2.484375 -1.234375 3.84375q-1.21875 1.359375 -2.953125 1.359375q-1.703125 0 -2.6875 -1.4375l0 1.21875zm-0.015625 -4.90625q0 1.734375 0.484375 2.515625q0.765625 1.265625 2.09375 1.265625q1.078125 0 1.859375 -0.9375q0.78125 -0.9375 0.78125 -2.78125q0 -1.890625 -0.75 -2.796875q-0.75 -0.90625 -1.828125 -0.90625q-1.0625 0 -1.859375 0.9375q-0.78125 0.9375 -0.78125 2.703125zm8.235107 2.015625l1.625 -0.25q0.125 0.96875 0.75 1.5q0.625 0.515625 1.75 0.515625q1.125 0 1.671875 -0.453125q0.546875 -0.46875 0.546875 -1.09375q0 -0.546875 -0.484375 -0.875q-0.328125 -0.21875 -1.671875 -0.546875q-1.8125 -0.46875 -2.515625 -0.796875q-0.6875 -0.328125 -1.046875 -0.90625q-0.359375 -0.59375 -0.359375 -1.3125q0 -0.640625 0.296875 -1.1875q0.296875 -0.5625 0.8125 -0.921875q0.375 -0.28125 1.03125 -0.46875q0.671875 -0.203125 1.421875 -0.203125q1.140625 0 2.0 0.328125q0.859375 0.328125 1.265625 0.890625q0.421875 0.5625 0.578125 1.5l-1.609375 0.21875q-0.109375 -0.75 -0.640625 -1.171875q-0.515625 -0.421875 -1.46875 -0.421875q-1.140625 0 -1.625 0.375q-0.46875 0.375 -0.46875 0.875q0 0.3125 0.1875 0.578125q0.203125 0.265625 0.640625 0.4375q0.234375 0.09375 1.4375 0.421875q1.75 0.453125 2.4375 0.75q0.6875 0.296875 1.078125 0.859375q0.390625 0.5625 0.390625 1.40625q0 0.828125 -0.484375 1.546875q-0.46875 0.71875 -1.375 1.125q-0.90625 0.390625 -2.046875 0.390625q-1.875 0 -2.875 -0.78125q-0.984375 -0.78125 -1.25 -2.328125zm9.984375 -8.578125l0 -1.890625l1.640625 0l0 1.890625l-1.640625 0zm0 11.46875l0 -9.671875l1.640625 0l0 9.671875l-1.640625 0zm7.7229614 -1.46875l0.234375 1.453125q-0.6875 0.140625 -1.234375 0.140625q-0.890625 0 -1.390625 -0.28125q-0.484375 -0.28125 -0.6875 -0.734375q-0.203125 -0.46875 -0.203125 -1.9375l0 -5.578125l-1.203125 0l0 -1.265625l1.203125 0l0 -2.390625l1.625 -0.984375l0 3.375l1.65625 0l0 1.265625l-1.65625 0l0 5.671875q0 0.6875 0.078125 0.890625q0.09375 0.203125 0.28125 0.328125q0.203125 0.109375 0.578125 0.109375q0.265625 0 0.71875 -0.0625zm8.230164 -1.640625l1.6875 0.203125q-0.40625 1.484375 -1.484375 2.3125q-1.078125 0.8125 -2.765625 0.8125q-2.125 0 -3.375 -1.296875q-1.234375 -1.3125 -1.234375 -3.671875q0 -2.453125 1.25 -3.796875q1.265625 -1.34375 3.265625 -1.34375q1.9375 0 3.15625 1.328125q1.234375 1.3125 1.234375 3.703125q0 0.15625 0 0.4375l-7.21875 0q0.09375 1.59375 0.90625 2.453125q0.8125 0.84375 2.015625 0.84375q0.90625 0 1.546875 -0.46875q0.640625 -0.484375 1.015625 -1.515625zm-5.390625 -2.65625l5.40625 0q-0.109375 -1.21875 -0.625 -1.828125q-0.78125 -0.953125 -2.03125 -0.953125q-1.125 0 -1.90625 0.765625q-0.765625 0.75 -0.84375 2.015625z" fill-rule="nonzero"/><path fill="#000000" fill-opacity="0.0" d="m644.69293 148.41208l0 -51.433075" fill-rule="evenodd"/><path stroke="#000000" stroke-width="3.0" stroke-linejoin="round" stroke-linecap="butt" d="m644.69293 148.41208l0 -33.433075" fill-rule="evenodd"/><path fill="#000000" stroke="#000000" stroke-width="3.0" stroke-linecap="butt" d="m649.64813 114.979004l-4.9552 -13.614296l-4.9552 13.614296z" fill-rule="evenodd"/><path fill="#b6d7a8" d="m591.2756 39.97398l0 0c0 -6.297039 5.1047974 -11.401802 11.401794 -11.401802l84.03107 0c3.0239258 0 5.924011 1.2012577 8.062317 3.3395119c2.1382446 2.1382523 3.3394775 5.0383453 3.3394775 8.06229l0 45.605846c0 6.297043 -5.1047363 11.401802 -11.401794 11.401802l-84.03107 0c-6.296997 0 -11.401794 -5.104759 -11.401794 -11.401802z" fill-rule="evenodd"/><path stroke="#595959" stroke-width="2.0" stroke-linejoin="round" stroke-linecap="butt" d="m591.2756 39.97398l0 0c0 -6.297039 5.1047974 -11.401802 11.401794 -11.401802l84.03107 0c3.0239258 0 5.924011 1.2012577 8.062317 3.3395119c2.1382446 2.1382523 3.3394775 5.0383453 3.3394775 8.06229l0 45.605846c0 6.297043 -5.1047363 11.401802 -11.401794 11.401802l-84.03107 0c-6.296997 0 -11.401794 -5.104759 -11.401794 -11.401802z" fill-rule="evenodd"/><path fill="#000000" d="m631.04895 58.6969l0 -5.65625l-5.15625 -7.703125l2.15625 0l2.640625 4.03125q0.71875 1.125 1.34375 2.265625q0.609375 -1.046875 1.46875 -2.359375l2.578125 -3.9375l2.0625 0l-5.328125 7.703125l0 5.65625l-1.765625 0zm6.1519165 -4.84375q0 -2.6875 1.484375 -3.96875q1.25 -1.078125 3.046875 -1.078125q2.0 0 3.265625 1.3125q1.265625 1.296875 1.265625 3.609375q0 1.859375 -0.5625 2.9375q-0.5625 1.0625 -1.640625 1.65625q-1.0625 0.59375 -2.328125 0.59375q-2.03125 0 -3.28125 -1.296875q-1.25 -1.3125 -1.25 -3.765625zm1.6875 0q0 1.859375 0.796875 2.796875q0.8125 0.921875 2.046875 0.921875q1.21875 0 2.03125 -0.921875q0.8125 -0.9375 0.8125 -2.84375q0 -1.796875 -0.8125 -2.71875q-0.8125 -0.921875 -2.03125 -0.921875q-1.234375 0 -2.046875 0.921875q-0.796875 0.90625 -0.796875 2.765625zm15.625732 4.84375l0 -1.421875q-1.125 1.640625 -3.0625 1.640625q-0.859375 0 -1.609375 -0.328125q-0.734375 -0.328125 -1.09375 -0.828125q-0.359375 -0.5 -0.5 -1.21875q-0.109375 -0.46875 -0.109375 -1.53125l0 -5.984375l1.640625 0l0 5.359375q0 1.28125 0.109375 1.734375q0.15625 0.640625 0.65625 1.015625q0.5 0.375 1.234375 0.375q0.734375 0 1.375 -0.375q0.65625 -0.390625 0.921875 -1.03125q0.265625 -0.65625 0.265625 -1.890625l0 -5.1875l1.640625 0l0 9.671875l-1.46875 0zm4.0319824 0l0 -9.671875l1.46875 0l0 1.46875q0.5625 -1.03125 1.03125 -1.359375q0.484375 -0.328125 1.0625 -0.328125q0.828125 0 1.6875 0.53125l-0.5625 1.515625q-0.609375 -0.359375 -1.203125 -0.359375q-0.546875 0 -0.96875 0.328125q-0.421875 0.328125 -0.609375 0.890625q-0.28125 0.875 -0.28125 1.921875l0 5.0625l-1.625 0z" fill-rule="nonzero"/><path fill="#000000" d="m610.77295 80.6969l-3.53125 -13.359375l1.8125 0l2.03125 8.765625q0.328125 1.375 0.5625 2.71875q0.5 -2.140625 0.59375 -2.46875l2.546875 -9.015625l2.125 0l1.921875 6.765625q0.71875 2.515625 1.03125 4.71875q0.265625 -1.265625 0.671875 -2.890625l2.09375 -8.59375l1.78125 0l-3.671875 13.359375l-1.703125 0l-2.8125 -10.171875q-0.359375 -1.28125 -0.421875 -1.5625q-0.203125 0.90625 -0.390625 1.5625l-2.828125 10.171875l-1.8125 0zm21.365173 -3.109375l1.6875 0.203125q-0.40625 1.484375 -1.484375 2.3125q-1.078125 0.8125 -2.765625 0.8125q-2.125 0 -3.375 -1.296875q-1.234375 -1.3125 -1.234375 -3.671875q0 -2.453125 1.25 -3.796875q1.265625 -1.34375 3.265625 -1.34375q1.9375 0 3.15625 1.328125q1.234375 1.3125 1.234375 3.703125q0 0.15625 0 0.4375l-7.21875 0q0.09375 1.59375 0.90625 2.453125q0.8125 0.84375 2.015625 0.84375q0.90625 0 1.546875 -0.46875q0.640625 -0.484375 1.015625 -1.515625zm-5.390625 -2.65625l5.40625 0q-0.109375 -1.21875 -0.625 -1.828125q-0.78125 -0.953125 -2.03125 -0.953125q-1.125 0 -1.90625 0.765625q-0.765625 0.75 -0.84375 2.015625zm10.641296 5.765625l-1.515625 0l0 -13.359375l1.640625 0l0 4.765625q1.046875 -1.296875 2.65625 -1.296875q0.890625 0 1.6875 0.359375q0.796875 0.359375 1.3125 1.015625q0.515625 0.640625 0.796875 1.5625q0.296875 0.921875 0.296875 1.96875q0 2.484375 -1.234375 3.84375q-1.21875 1.359375 -2.953125 1.359375q-1.703125 0 -2.6875 -1.4375l0 1.21875zm-0.015625 -4.90625q0 1.734375 0.484375 2.515625q0.765625 1.265625 2.09375 1.265625q1.078125 0 1.859375 -0.9375q0.78125 -0.9375 0.78125 -2.78125q0 -1.890625 -0.75 -2.796875q-0.75 -0.90625 -1.828125 -0.90625q-1.0625 0 -1.859375 0.9375q-0.78125 0.9375 -0.78125 2.703125zm11.779114 4.90625l5.125 -13.359375l1.90625 0l5.46875 13.359375l-2.015625 0l-1.546875 -4.046875l-5.59375 0l-1.46875 4.046875l-1.875 0zm3.859375 -5.484375l4.53125 0l-1.40625 -3.703125q-0.625 -1.6875 -0.9375 -2.765625q-0.265625 1.28125 -0.71875 2.546875l-1.46875 3.921875zm9.8497925 9.1875l0 -13.375l1.484375 0l0 1.25q0.53125 -0.734375 1.1875 -1.09375q0.671875 -0.375 1.625 -0.375q1.234375 0 2.171875 0.640625q0.953125 0.625 1.4375 1.796875q0.484375 1.15625 0.484375 2.546875q0 1.484375 -0.53125 2.671875q-0.53125 1.1875 -1.546875 1.828125q-1.015625 0.625 -2.140625 0.625q-0.8125 0 -1.46875 -0.34375q-0.65625 -0.34375 -1.0625 -0.875l0 4.703125l-1.640625 0zm1.484375 -8.484375q0 1.859375 0.75 2.765625q0.765625 0.890625 1.828125 0.890625q1.09375 0 1.875 -0.921875q0.78125 -0.9375 0.78125 -2.875q0 -1.84375 -0.765625 -2.765625q-0.75 -0.921875 -1.8125 -0.921875q-1.046875 0 -1.859375 0.984375q-0.796875 0.96875 -0.796875 2.84375zm8.891357 8.484375l0 -13.375l1.484375 0l0 1.25q0.53125 -0.734375 1.1875 -1.09375q0.671875 -0.375 1.625 -0.375q1.234375 0 2.171875 0.640625q0.953125 0.625 1.4375 1.796875q0.484375 1.15625 0.484375 2.546875q0 1.484375 -0.53125 2.671875q-0.53125 1.1875 -1.546875 1.828125q-1.015625 0.625 -2.140625 0.625q-0.8125 0 -1.46875 -0.34375q-0.65625 -0.34375 -1.0625 -0.875l0 4.703125l-1.640625 0zm1.484375 -8.484375q0 1.859375 0.75 2.765625q0.765625 0.890625 1.828125 0.890625q1.09375 0 1.875 -0.921875q0.78125 -0.9375 0.78125 -2.875q0 -1.84375 -0.765625 -2.765625q-0.75 -0.921875 -1.8125 -0.921875q-1.046875 0 -1.859375 0.984375q-0.796875 0.96875 -0.796875 2.84375z" fill-rule="nonzero"/></g></svg>